<svg xmlns="http://www.w3.org/2000/svg" xmlns:xlink="http://www.w3.org/1999/xlink" version="1.1" x="0px" y="0px" viewBox="0 0 50 62.5" enable-background="new 0 0 50 50" xml:space="preserve"><g><path fill-rule="evenodd" clip-rule="evenodd" d="M38.011,36.581l-2.59-2.328l-2.203,1.918l-0.256,1.98l2.672,2.067l2.271-1.066   L38.011,36.581z M33.265,42.696l-4.339-0.352l-0.739,3.575l1.245,2.163l4.223,0.033l1.452-2.781L33.265,42.696z M41.739,39.717   l-2.391,4.192L43.631,50l4.545-1.407l1.113-3.302l-3.867-6.79L41.739,39.717z M33.592,24.55l6.291,6.292l7.45-7.447L28.987,5.049   L19.375,0L15.94,3.438l10.678,10.678l0.105,2.406L0.711,42.535l7.449,7.449L33.592,24.55z"/></g><text x="0" y="65" fill="#000000" font-size="5px" font-weight="bold" font-family="'Helvetica Neue', Helvetica, Arial-Unicode, Arial, Sans-serif">Created by Georgiana Ionescu</text><text x="0" y="70" fill="#000000" font-size="5px" font-weight="bold" font-family="'Helvetica Neue', Helvetica, Arial-Unicode, Arial, Sans-serif">from the Noun Project</text></svg>