<svg xmlns="http://www.w3.org/2000/svg" xmlns:xlink="http://www.w3.org/1999/xlink" version="1.1" x="0px" y="0px" viewBox="0 0 69 86.25" style="enable-background:new 0 0 69 69;" xml:space="preserve"><g><path d="M57.15064,39.33803c6.07957-14.25813-0.56075-30.68158-14.78516-36.74805   c-1.31758-0.55945-1.50302,1.18747-3.39453,5.40955C21.0931,1.31266,4.30663,19.17603,11.16236,36.35463   c2.02588,5.13251,5.84277,9.19287,10.78101,11.56836l-2.08179,4.88086c-0.10352,0.24414-0.10645,0.51953-0.00781,0.76563   s0.29102,0.44238,0.53516,0.54688c3.54297,1.51074,7.27246,2.26758,10.99902,2.26758c0.22925,0,0.4585-0.01105,0.68774-0.01678   v3.08643h-7.86011c-2.43994,0-4.42993,1.98999-4.42993,4.42999v0.62634h-3.8645c-0.55273,0-1,0.44727-1,1s0.44727,1,1,1   c-0.10041,0.00008,5.82418,0.00355,34.30078,0c0.55273,0,1-0.44727,1-1s-0.44727-1-1-1h-3.86621v-0.62634   c0-2.44-1.98999-4.42999-4.43005-4.42999h-7.84998v-3.20129C43.91193,55.28756,52.96006,49.1608,57.15064,39.33803z    M44.62232,13.71535c-0.6561,0.24756-1.3206,0.06145-1.75208,0.88641c-1.49352,2.90936-1.82407,2.3578-3.91455-0.56079   c-0.099-0.14294-0.04395-0.40686-0.05493-0.6377c-0.099-0.02203-0.21997-0.04407-0.48376-0.099   c1.6493-0.88383,1.34974-0.70533,0.84668-1.41846c0.04395-0.01099,0.18689-0.06598,0.34082-0.10999   c-0.28589-0.83569-0.96765-0.52783-1.56152-0.5498c0.07703-0.19794,0.13208-0.31885,0.198-0.47284   c-0.88281-0.55646-1.75659-1.11035-2.67163-1.69397C38.99518,9.81076,42.01615,11.36292,44.62232,13.71535z M35.21778,8.97804   c0.16296,0.65265,0.78617,0.77684,1.81372,1.25836c-0.5494,1.08257-0.89322,0.45493-1.4845-0.07697   c-0.73312,0.85519,1.02912,0.68657,0.73669,1.40747c-0.03722,0.08691-0.89647-0.07252-0.98975-0.08795   c-0.02185,0.04395-0.05493,0.08795-0.08789,0.12097c0.20898,0.16486,0.41797,0.31885,0.69287,0.52777   c-0.59387,0.07697-1.01172-0.14294-1.41858-0.40686c-0.97864-0.60474-0.97864-0.60474-1.97925-0.65973   c1.373-1.14434,1.90221-1.18419-0.23401-2.42297C33.25525,8.68263,34.24134,8.78255,35.21778,8.97804z M21.38428,26.48842   c-0.34578-0.069,0.16428,0.36112-2.28723-2.95795c-0.90968-1.23083-2.51648-1.34194-2.38611-4.32141   c0.02877-0.80597,0.45257-1.48472-0.198-2.26514c-0.20588-0.23545-0.22802-0.2447-0.59595-0.8573   c2.32791-2.94736,5.28262-5.06107,8.98901-6.35913c0.10864,0.0014,0.18433-0.02606,0.24451-0.08679   c0.29492-0.09906,0.58899-0.19928,0.8866-0.284c-0.01489,0.13995-0.03052,0.28113-0.04565,0.41785   c0.29913-0.04594,0.4395,0.06613,0.57544-0.54968c1.49915-0.38239,3.02209-0.59564,4.54932-0.61743   c-0.62612,0.64817,0.00907,1.68102-1.46301,1.61798c-0.41785-0.01099-0.70374,0.06598-0.8468,0.5498   c-0.10046,0.38536-1.47169,1.09814-2.03418,1.61633c-1.46877,1.36006,1.23739,2.11337,3.34277,2.815   c1.1884,0.36327-0.18201,1.6264,1.52844,1.19855c0.03296-0.01099,0.04395-0.29688-0.02209-0.41785   c-0.63581-1.17148,1.17423-0.62016,0.65979-1.9353c-0.36492-0.9123-0.76368-2.12288,0.18701-1.99023   c2.32879,0.30654,1.79135,0.84189,2.65002,1.52844c0.32983,0.26392,0.50586,0.18695,0.73669-0.17596   c0.33968-0.57719,0.82675-0.49293,1.00061,0c0.68521,1.96131,3.04869,2.57015,1.88037,3.18884   c-2.4049,1.22429-3.77694-0.31885-4.13452,1.52844c1.43152-0.81791,1.11323-0.59614,1.74829-0.65979   c0,0.17596,0.02209,0.36292,0.01099,0.53888c-0.09084,0.96966,1.47444,0.64923,1.9353-0.30792   c0.16504-0.3299,0.45093-0.59375,0.69287-0.89069c1.04286,1.13345,0.72342,0.7205,1.07751,1.39655   c-0.90823,0-1.74408-0.21919-2.90295,0.71466c-0.64868,0.52783-0.9126,0.56079-1.58337,0.41785   c0.2749-0.18689,0.51685-0.34088,0.74768-0.49481c0-0.04395-0.01099-0.08795-0.02197-0.13196   c-0.18701,0.03302-0.39587,0.01099-0.5498,0.099c-0.97671,0.58084-1.53954,1.11317-2.30908,1.79236   c-0.25845,0.25821-0.2164,0.34648-0.28589,0.45081c-0.25293,0.45087-0.9126,0.70374-0.68188,1.40747   c0.03664,0.0912-0.80882,0.67122-0.89062,0.72571c-1.48923,0.92742,0.2531,1.8451-0.64868,2.66107   c-1.30957-1.8481-1.01135-1.82969-3.84863-1.28656c-1.27551,0.25293-2.12219,1.62744-1.69336,2.74896   c0.43982,1.16559,1.94629,1.29755,2.49609,0.43988c0.34525-0.51787,1.42802-0.7358,1.08862,0.02203   c-0.33973,0.71015-1.07128,1.5079,0.42883,1.40741c0.59375-0.0329,0.84668,0.2749,0.67078,0.83575   c-0.21997,0.74768,0.20886,1.31952,0.98962,1.31952c0.82814,0,1.28034,0.17165,1.67138-0.18701   c1.06613-1.06596,1.14805-0.04373,1.79236-0.47278c0.30786-0.18695,0.56079-0.12097,0.86865,0.02197   c0.29766,0.13739,1.7177,0.388,2.45203,0.83569c2.04959,1.29021,1.6547,0.49259,2.63904,1.24255   c0.80936,0.63586,0.53011,0.85683,0.08789,1.80328c0.35193-0.06598,0.64893-0.10992,1.04468-0.1759   c-0.18689,0.14294-0.29688,0.23096-0.42871,0.34088c0.10986,0.07697,0.20874,0.15399,0.34082,0.25287   c0.21985-0.54974,0.53882-0.45081,0.97852-0.25287c1.42085,0.6459,5.38614,0.60743,2.73804,3.16687   c-1.75685,1.75686,0.76165,2.44817-2.72705,4.11243c-1.23399,0.53502-1.95378,3.97326-3.82642,3.61774   c0.25843,1.02237-0.40498,1.2132-1.28064,1.49695c-0.08484,0.01483-0.16614,0.03156-0.25891,0.04242   c-0.03394,0.02991-0.05957,0.05347-0.09058,0.08124c-1.14307,0.34729-2.30566,0.57544-3.47534,0.70972   c-0.01038-0.43665-0.13354-0.91687,0.01428-1.29675c0.52771-1.30847,0.59375-2.68298,0.74768-4.05743   c0.17595-1.46751,0.51794-2.50547-0.48376-3.08997c-1.2865-0.75867-1.95727-2.02319-2.71594-3.21075   c-0.16504-0.26392-0.12109-0.5498-0.12109-0.86865c0.02197-1.00067,0.48389-1.7594,0.95667-2.58411   c0.41784-0.73669-0.05493-1.30853-0.89075-1.22052c-0.7146,0.06598-1.24243-0.3299-1.63831-0.84668   c-1.14262-1.51321-1.22709-0.45772-2.23206-1.40747c-0.8422-0.84172-1.16943-0.04184-1.78149-0.3299   c-1.17651-0.59381-2.45215-1.00067-3.08984-2.41913c-0.40674-0.90167-1.1875-1.63837-1.82532-2.43011   c-0.12097-0.14294-0.35193-0.19794-0.61572-0.35187C20.08668,24.97096,20.96631,25.57576,21.38428,26.48842z M22.10084,52.6515   l1.68286-3.94464c2.4668,0.92303,5.02869,1.41241,7.59644,1.41241c8.17952,0,16.37793-4.71204,20.01465-13.2373   c4.62006-10.83785-0.21679-23.11237-10.58386-28.09772l1.6825-3.94525c12.44667,5.86821,18.38946,20.64817,12.81738,33.71387   C49.80331,51.46371,35.12489,57.6404,22.10084,52.6515z M51.1189,27.76839c0.04248,1.39771-0.06055,2.79657-0.32056,4.18079   c-0.06421-0.09924-0.1377-0.18933-0.19788-0.29266c-0.099-0.1759-0.07703-0.43988-0.07703-0.67072   C50.39316,27.59509,50.61198,29.03248,51.1189,27.76839z"/></g><text x="0" y="84" fill="#000000" font-size="5px" font-weight="bold" font-family="'Helvetica Neue', Helvetica, Arial-Unicode, Arial, Sans-serif">Created by Vectors Point</text><text x="0" y="89" fill="#000000" font-size="5px" font-weight="bold" font-family="'Helvetica Neue', Helvetica, Arial-Unicode, Arial, Sans-serif">from the Noun Project</text></svg>