<?xml version="1.0" encoding="UTF-8" standalone="no"?>
<svg
   xmlns:dc="http://purl.org/dc/elements/1.1/"
   xmlns:cc="http://creativecommons.org/ns#"
   xmlns:rdf="http://www.w3.org/1999/02/22-rdf-syntax-ns#"
   xmlns:svg="http://www.w3.org/2000/svg"
   xmlns="http://www.w3.org/2000/svg"
   xmlns:sodipodi="http://sodipodi.sourceforge.net/DTD/sodipodi-0.dtd"
   xmlns:inkscape="http://www.inkscape.org/namespaces/inkscape"
   data-name="Layer 1"
   viewBox="0 0 24 30"
   x="0px"
   y="0px"
   version="1.1"
   id="svg22"
   sodipodi:docname="instagram.svg"
   inkscape:version="1.0.2 (e86c8708, 2021-01-15)">
  <metadata
     id="metadata28">
    <rdf:RDF>
      <cc:Work
         rdf:about="">
        <dc:format>image/svg+xml</dc:format>
        <dc:type
           rdf:resource="http://purl.org/dc/dcmitype/StillImage" />
      </cc:Work>
    </rdf:RDF>
  </metadata>
  <defs
     id="defs26" />
  <sodipodi:namedview
     pagecolor="#ffffff"
     bordercolor="#666666"
     borderopacity="1"
     objecttolerance="10"
     gridtolerance="10"
     guidetolerance="10"
     inkscape:pageopacity="0"
     inkscape:pageshadow="2"
     inkscape:window-width="1367"
     inkscape:window-height="706"
     id="namedview24"
     showgrid="false"
     inkscape:zoom="6.3604406"
     inkscape:cx="10.594668"
     inkscape:cy="20.039824"
     inkscape:window-x="0"
     inkscape:window-y="25"
     inkscape:window-maximized="0"
     inkscape:current-layer="svg22" />
  <title
     id="title10">Instagram</title>
  <path
     d="M20.44,0H3.56A3.57,3.57,0,0,0,0,3.56V20.44A3.57,3.57,0,0,0,3.56,24H20.44A3.57,3.57,0,0,0,24,20.44V3.56A3.57,3.57,0,0,0,20.44,0ZM22,20.44A1.56,1.56,0,0,1,20.44,22H3.56A1.56,1.56,0,0,1,2,20.44V3.56A1.56,1.56,0,0,1,3.56,2H20.44A1.56,1.56,0,0,1,22,3.56Z"
     id="path12"
     style="fill:#949494;fill-opacity:1"
     inkscape:export-xdpi="300"
     inkscape:export-ydpi="300" />
  <path
     d="M12,6a6,6,0,1,0,6,6A6,6,0,0,0,12,6Zm0,10a4,4,0,1,1,4-4A4,4,0,0,1,12,16Z"
     id="path14"
     style="fill:#949494;fill-opacity:1"
     inkscape:export-xdpi="300"
     inkscape:export-ydpi="300" />
  <circle
     cx="18.5"
     cy="5.5"
     r="1.5"
     id="circle16"
     style="fill:#949494;fill-opacity:1"
     inkscape:export-xdpi="300"
     inkscape:export-ydpi="300" />
  <text
     x="0"
     y="39"
     fill="#000000"
     font-size="5px"
     font-weight="bold"
     font-family="'Helvetica Neue', Helvetica, Arial-Unicode, Arial, Sans-serif"
     id="text18">Created by Mas Dhimas</text>
  <text
     x="0"
     y="44"
     fill="#000000"
     font-size="5px"
     font-weight="bold"
     font-family="'Helvetica Neue', Helvetica, Arial-Unicode, Arial, Sans-serif"
     id="text20">from the Noun Project</text>
</svg>
