<?xml version="1.0" encoding="UTF-8" standalone="no"?>
<svg
   xmlns:dc="http://purl.org/dc/elements/1.1/"
   xmlns:cc="http://creativecommons.org/ns#"
   xmlns:rdf="http://www.w3.org/1999/02/22-rdf-syntax-ns#"
   xmlns:svg="http://www.w3.org/2000/svg"
   xmlns="http://www.w3.org/2000/svg"
   xmlns:sodipodi="http://sodipodi.sourceforge.net/DTD/sodipodi-0.dtd"
   xmlns:inkscape="http://www.inkscape.org/namespaces/inkscape"
   version="1.1"
   x="0px"
   y="0px"
   viewBox="0 0 100 125"
   enable-background="new 0 0 100 100"
   xml:space="preserve"
   id="svg30"
   sodipodi:docname="twitter.svg"
   inkscape:version="1.0.2 (e86c8708, 2021-01-15)"><metadata
     id="metadata36"><rdf:RDF><cc:Work
         rdf:about=""><dc:format>image/svg+xml</dc:format><dc:type
           rdf:resource="http://purl.org/dc/dcmitype/StillImage" /></cc:Work></rdf:RDF></metadata><defs
     id="defs34" /><sodipodi:namedview
     pagecolor="#ffffff"
     bordercolor="#666666"
     borderopacity="1"
     objecttolerance="10"
     gridtolerance="10"
     guidetolerance="10"
     inkscape:pageopacity="0"
     inkscape:pageshadow="2"
     inkscape:window-width="1374"
     inkscape:window-height="752"
     id="namedview32"
     showgrid="false"
     inkscape:zoom="5.072"
     inkscape:cx="45.662461"
     inkscape:cy="45.938486"
     inkscape:window-x="0"
     inkscape:window-y="25"
     inkscape:window-maximized="0"
     inkscape:current-layer="svg30" /><g
     id="g12"
     style="fill:#949494;fill-opacity:1"
     inkscape:export-xdpi="300"
     inkscape:export-ydpi="300"><path
       d="M33.714,92.348C23.512,91.226,14.095,87.017,6.48,80.176c-0.517-0.464-0.801-1.133-0.777-1.826   c0.023-0.695,0.353-1.343,0.9-1.771c1.708-1.336,9.453-7.402,14.634-11.643C11.87,57.747,6.459,49.669,5.14,40.89   c-1.823-12.129,4.933-20.981,5.221-21.353c0.728-0.936,2.038-1.183,3.058-0.574l28.35,16.918c-1.015-2.97-1.377-6.169-1.02-9.417   C41.907,15.929,51.719,7.356,62.619,7.356c2.466,0,4.852,0.445,7.091,1.323c6.637,2.603,11.739,7.979,14.83,15.594l11.367,1.25   c0.945,0.104,1.733,0.767,1.998,1.679c0.267,0.912-0.045,1.895-0.785,2.488l-9.511,7.625c0.376,3.909,0.352,7.991-0.077,11.887   c-2.726,24.765-23.543,43.44-48.424,43.441c-0.001,0-0.001,0-0.002,0C37.318,92.645,35.503,92.545,33.714,92.348z M82.87,28.815   c-0.002,0-0.004,0-0.007,0c-0.97,0-1.866-0.604-2.208-1.551c-2.58-7.146-6.839-11.928-12.66-14.212   c-1.689-0.663-3.499-0.998-5.376-0.998c-8.579,0-16.297,6.695-17.202,14.923c-0.592,5.384,1.339,10.598,5.299,14.306   c0.876,0.82,0.992,2.169,0.271,3.127c-0.721,0.959-2.049,1.22-3.08,0.604L12.96,24.159c-1.61,2.826-4.281,8.826-3.165,16.101   c1.253,8.175,6.841,15.792,16.608,22.639c0.597,0.419,0.965,1.091,0.998,1.818c0.032,0.729-0.275,1.431-0.833,1.9   c-3.812,3.214-10.949,8.854-14.797,11.878c6.468,5.111,14.175,8.271,22.456,9.182c1.62,0.18,3.261,0.27,4.878,0.27   c0.001,0,0.001,0,0.002,0C61.59,87.946,80.399,71.069,82.862,48.69c0.438-3.98,0.419-8.17-0.059-12.119   c-0.098-0.806,0.229-1.606,0.862-2.114l6.091-4.883L82.87,28.815z"
       id="path10"
       style="fill:#949494;fill-opacity:1" /></g><g
     id="g16"
     style="fill:#949494;fill-opacity:1"
     inkscape:export-xdpi="300"
     inkscape:export-ydpi="300"><path
       d="M34.918,82.282c19.967,0,37.21-15.073,39.445-35.37c0.141-1.289-0.789-2.45-2.078-2.592   c-1.289-0.134-2.45,0.789-2.592,2.078c-2.112,19.192-19.447,33.093-38.636,30.973c-1.287-0.138-2.45,0.789-2.591,2.078   c-0.143,1.289,0.788,2.449,2.077,2.592C32.013,82.203,33.473,82.282,34.918,82.282z"
       id="path14"
       style="fill:#949494;fill-opacity:1" /></g><g
     id="g20"
     style="fill:#949494;fill-opacity:1"
     inkscape:export-xdpi="300"
     inkscape:export-ydpi="300"><circle
       cx="64.698"
       cy="27.598"
       r="4.49"
       id="circle18"
       style="fill:#949494;fill-opacity:1" /></g><g
     id="g24"
     style="fill:#949494;fill-opacity:1"
     inkscape:export-xdpi="300"
     inkscape:export-ydpi="300"><path
       d="M40.71,57.15c0.794,0,1.569-0.403,2.011-1.133c0.672-1.109,0.318-2.553-0.792-3.226l-16.402-9.937   c-1.111-0.67-2.554-0.316-3.226,0.793s-0.317,2.553,0.792,3.226l16.402,9.937C39.876,57.041,40.296,57.15,40.71,57.15z"
       id="path22"
       style="fill:#949494;fill-opacity:1" /></g><text
     x="0"
     y="115"
     fill="#000000"
     font-size="5px"
     font-weight="bold"
     font-family="'Helvetica Neue', Helvetica, Arial-Unicode, Arial, Sans-serif"
     id="text26">Created by Andrey Vasiliev</text><text
     x="0"
     y="120"
     fill="#000000"
     font-size="5px"
     font-weight="bold"
     font-family="'Helvetica Neue', Helvetica, Arial-Unicode, Arial, Sans-serif"
     id="text28">from the Noun Project</text></svg>
