<?xml version='1.0' encoding='UTF-8' standalone='no'?>
<svg viewBox="0 0 3507 2480" baseProfile="tiny" xmlns:cc="http://creativecommons.org/ns#" height="209.973mm" width="296.926mm" xmlns="http://www.w3.org/2000/svg" xmlns:xlink="http://www.w3.org/1999/xlink" version="1.2">
 <defs/>
 <g fill-rule="evenodd" fill="none" stroke-width="1" stroke-linejoin="bevel" stroke="black" stroke-linecap="square">
  <g font-family=".AppleSystemUIFont" fill="none" stroke-width="1" font-size="54.1667" font-style="normal" stroke-linejoin="bevel" stroke-opacity="1" font-weight="400" transform="matrix(1,0,0,1,0,0)" stroke="#000000" stroke-linecap="square"/>
  <g font-family=".AppleSystemUIFont" fill="none" stroke-width="1" font-size="54.1667" font-style="normal" stroke-linejoin="bevel" stroke-opacity="1" font-weight="400" transform="matrix(1,0,0,1,0,0)" stroke="#000000" stroke-linecap="square"/>
  <g font-family=".AppleSystemUIFont" fill="none" stroke-width="1" font-size="54.1667" font-style="normal" stroke-linejoin="bevel" stroke-opacity="1" font-weight="400" transform="matrix(11.8081,0,0,11.8081,0,0)" stroke="#000000" stroke-linecap="square"/>
  <g font-family=".AppleSystemUIFont" fill="none" stroke-width="1" font-size="54.1667" font-style="normal" stroke-linejoin="bevel" stroke-opacity="1" font-weight="400" transform="matrix(0.999751,0,0,0.999751,0,0)" stroke="#000000" stroke-linecap="square"/>
  <g font-family=".AppleSystemUIFont" fill="#ffffff" fill-opacity="1" font-size="54.1667" font-style="normal" font-weight="400" transform="matrix(0.999751,0,0,0.999751,0,0)" stroke="none">
   <path fill-rule="evenodd" d="M-2,-2 L3510,-2 L3510,2483 L-2,2483 L-2,-2" vector-effect="none"/>
  </g>
  <g font-family=".AppleSystemUIFont" fill="none" stroke-width="1" font-size="54.1667" font-style="normal" stroke-linejoin="bevel" stroke-opacity="1" font-weight="400" transform="matrix(0.999751,0,0,0.999751,0,0)" stroke="#000000" stroke-linecap="square"/>
  <g font-family=".AppleSystemUIFont" fill="none" stroke-width="1" font-size="54.1667" font-style="normal" stroke-linejoin="bevel" stroke-opacity="1" font-weight="400" transform="matrix(11.8081,0,0,11.8081,0,0)" stroke="#000000" stroke-linecap="square"/>
  <g font-family=".AppleSystemUIFont" fill="none" stroke-width="1" font-size="54.1667" font-style="normal" stroke-linejoin="bevel" stroke-opacity="1" font-weight="400" transform="matrix(11.8081,0,0,11.8081,0,0)" stroke="#000000" stroke-linecap="square"/>
  <g font-family=".AppleSystemUIFont" fill="none" stroke-width="1" font-size="54.1667" font-style="normal" stroke-linejoin="bevel" stroke-opacity="1" font-weight="400" transform="matrix(11.8081,0,0,11.8081,0,0)" stroke="#000000" stroke-linecap="square"/>
  <g font-family=".AppleSystemUIFont" fill="none" stroke-width="1" font-size="54.1667" font-style="normal" stroke-linejoin="bevel" stroke-opacity="1" font-weight="400" transform="matrix(11.8081,0,0,11.8081,0,0)" stroke="#000000" stroke-linecap="square"/>
  <g font-family=".AppleSystemUIFont" fill="none" stroke-width="1" font-size="54.1667" font-style="normal" stroke-linejoin="bevel" stroke-opacity="1" font-weight="400" transform="matrix(11.8081,0,0,11.8081,0,0)" stroke="#000000" stroke-linecap="square"/>
  <g font-family=".AppleSystemUIFont" fill="#ffffff" fill-opacity="1" font-size="54.1667" font-style="normal" font-weight="400" transform="matrix(11.8081,0,0,11.8081,0,0)" stroke="none">
   <path fill-rule="evenodd" d="M0,0 L297,0 L297,210 L0,210 L0,0" vector-effect="none"/>
  </g>
  <g font-family=".AppleSystemUIFont" fill="none" stroke-width="1" font-size="54.1667" font-style="normal" stroke-linejoin="bevel" stroke-opacity="1" font-weight="400" transform="matrix(11.8081,0,0,11.8081,0,0)" stroke="#000000" stroke-linecap="square"/>
  <g font-family=".AppleSystemUIFont" fill="none" stroke-width="1" font-size="54.1667" font-style="normal" stroke-linejoin="bevel" stroke-opacity="1" font-weight="400" transform="matrix(11.8081,0,0,11.8081,0,0)" stroke="#000000" stroke-linecap="square"/>
  <g font-family=".AppleSystemUIFont" fill="#000000" fill-opacity="0" font-size="54.1667" font-style="normal" font-weight="400" transform="matrix(0.999751,0,0,0.999751,0,0)" stroke="none">
   <rect x="0" height="2480" y="0" width="3508"/>
  </g>
  <g font-family=".AppleSystemUIFont" fill="none" stroke-width="1" font-size="54.1667" font-style="normal" stroke-linejoin="bevel" stroke-opacity="1" font-weight="400" transform="matrix(0.999751,0,0,0.999751,0,0)" stroke="#000000" stroke-linecap="square"/>
  <g font-family=".AppleSystemUIFont" fill="#e45e5e" fill-opacity="1" stroke-width="1" font-size="54.1667" font-style="normal" stroke-linejoin="bevel" stroke-opacity="0" font-weight="400" transform="matrix(0.999751,0,0,0.999751,0,0)" stroke="#232323" stroke-linecap="square">
   <path fill-rule="evenodd" d="M1642.82,1205.39 C1642.82,1208 1640.71,1210.11 1638.1,1210.11 C1635.49,1210.11 1633.38,1208 1633.38,1205.39 C1633.38,1202.78 1635.49,1200.66 1638.1,1200.66 C1640.71,1200.66 1642.82,1202.78 1642.82,1205.39 " vector-effect="non-scaling-stroke"/>
   <path fill-rule="evenodd" d="M1941.29,954.341 C1941.29,956.95 1939.17,959.065 1936.56,959.065 C1933.95,959.065 1931.84,956.95 1931.84,954.341 C1931.84,951.731 1933.95,949.616 1936.56,949.616 C1939.17,949.616 1941.29,951.731 1941.29,954.341 " vector-effect="non-scaling-stroke"/>
   <path fill-rule="evenodd" d="M1696.92,1474.29 C1696.92,1476.9 1694.81,1479.01 1692.2,1479.01 C1689.59,1479.01 1687.48,1476.9 1687.48,1474.29 C1687.48,1471.68 1689.59,1469.57 1692.2,1469.57 C1694.81,1469.57 1696.92,1471.68 1696.92,1474.29 " vector-effect="non-scaling-stroke"/>
   <path fill-rule="evenodd" d="M1886.63,1661.08 C1886.63,1663.68 1884.51,1665.8 1881.9,1665.8 C1879.29,1665.8 1877.18,1663.68 1877.18,1661.08 C1877.18,1658.47 1879.29,1656.35 1881.9,1656.35 C1884.51,1656.35 1886.63,1658.47 1886.63,1661.08 " vector-effect="non-scaling-stroke"/>
   <path fill-rule="evenodd" d="M2356.62,986.293 C2356.62,988.902 2354.51,991.018 2351.9,991.018 C2349.29,991.018 2347.17,988.902 2347.17,986.293 C2347.17,983.684 2349.29,981.569 2351.9,981.569 C2354.51,981.569 2356.62,983.684 2356.62,986.293 " vector-effect="non-scaling-stroke"/>
   <path fill-rule="evenodd" d="M1733.78,1570.89 C1733.78,1573.49 1731.66,1575.61 1729.05,1575.61 C1726.44,1575.61 1724.33,1573.49 1724.33,1570.89 C1724.33,1568.28 1726.44,1566.16 1729.05,1566.16 C1731.66,1566.16 1733.78,1568.28 1733.78,1570.89 " vector-effect="non-scaling-stroke"/>
   <path fill-rule="evenodd" d="M1747.2,1341.47 C1747.2,1344.08 1745.08,1346.2 1742.47,1346.2 C1739.86,1346.2 1737.75,1344.08 1737.75,1341.47 C1737.75,1338.86 1739.86,1336.75 1742.47,1336.75 C1745.08,1336.75 1747.2,1338.86 1747.2,1341.47 " vector-effect="non-scaling-stroke"/>
   <path fill-rule="evenodd" d="M1694.85,1471.23 C1694.85,1473.84 1692.73,1475.96 1690.12,1475.96 C1687.51,1475.96 1685.4,1473.84 1685.4,1471.23 C1685.4,1468.62 1687.51,1466.51 1690.12,1466.51 C1692.73,1466.51 1694.85,1468.62 1694.85,1471.23 " vector-effect="non-scaling-stroke"/>
   <path fill-rule="evenodd" d="M1929.18,1611.85 C1929.18,1614.46 1927.06,1616.57 1924.45,1616.57 C1921.84,1616.57 1919.73,1614.46 1919.73,1611.85 C1919.73,1609.24 1921.84,1607.12 1924.45,1607.12 C1927.06,1607.12 1929.18,1609.24 1929.18,1611.85 " vector-effect="non-scaling-stroke"/>
   <path fill-rule="evenodd" d="M1658.52,1867.91 C1658.52,1870.52 1656.4,1872.64 1653.8,1872.64 C1651.19,1872.64 1649.07,1870.52 1649.07,1867.91 C1649.07,1865.3 1651.19,1863.19 1653.8,1863.19 C1656.4,1863.19 1658.52,1865.3 1658.52,1867.91 " vector-effect="non-scaling-stroke"/>
   <path fill-rule="evenodd" d="M1887.52,1460.22 C1887.52,1462.83 1885.4,1464.95 1882.79,1464.95 C1880.18,1464.95 1878.07,1462.83 1878.07,1460.22 C1878.07,1457.61 1880.18,1455.5 1882.79,1455.5 C1885.4,1455.5 1887.52,1457.61 1887.52,1460.22 " vector-effect="non-scaling-stroke"/>
   <path fill-rule="evenodd" d="M1976.98,923.089 C1976.98,925.698 1974.86,927.813 1972.25,927.813 C1969.64,927.813 1967.53,925.698 1967.53,923.089 C1967.53,920.479 1969.64,918.364 1972.25,918.364 C1974.86,918.364 1976.98,920.479 1976.98,923.089 " vector-effect="non-scaling-stroke"/>
   <path fill-rule="evenodd" d="M2191.09,1314.79 C2191.09,1317.4 2188.98,1319.52 2186.37,1319.52 C2183.76,1319.52 2181.64,1317.4 2181.64,1314.79 C2181.64,1312.19 2183.76,1310.07 2186.37,1310.07 C2188.98,1310.07 2191.09,1312.19 2191.09,1314.79 " vector-effect="non-scaling-stroke"/>
   <path fill-rule="evenodd" d="M1861.11,1800.44 C1861.11,1803.05 1859,1805.17 1856.39,1805.17 C1853.78,1805.17 1851.66,1803.05 1851.66,1800.44 C1851.66,1797.83 1853.78,1795.72 1856.39,1795.72 C1859,1795.72 1861.11,1797.83 1861.11,1800.44 " vector-effect="non-scaling-stroke"/>
   <path fill-rule="evenodd" d="M1899.92,1530.12 C1899.92,1532.73 1897.81,1534.84 1895.2,1534.84 C1892.59,1534.84 1890.47,1532.73 1890.47,1530.12 C1890.47,1527.51 1892.59,1525.39 1895.2,1525.39 C1897.81,1525.39 1899.92,1527.51 1899.92,1530.12 " vector-effect="non-scaling-stroke"/>
   <path fill-rule="evenodd" d="M1931.74,1065.55 C1931.74,1068.16 1929.62,1070.27 1927.01,1070.27 C1924.4,1070.27 1922.29,1068.16 1922.29,1065.55 C1922.29,1062.94 1924.4,1060.83 1927.01,1060.83 C1929.62,1060.83 1931.74,1062.94 1931.74,1065.55 " vector-effect="non-scaling-stroke"/>
   <path fill-rule="evenodd" d="M2051.79,1622.25 C2051.79,1624.86 2049.67,1626.97 2047.06,1626.97 C2044.46,1626.97 2042.34,1624.86 2042.34,1622.25 C2042.34,1619.64 2044.46,1617.52 2047.06,1617.52 C2049.67,1617.52 2051.79,1619.64 2051.79,1622.25 " vector-effect="non-scaling-stroke"/>
   <path fill-rule="evenodd" d="M1513.12,1504.79 C1513.12,1507.4 1511.01,1509.52 1508.4,1509.52 C1505.79,1509.52 1503.68,1507.4 1503.68,1504.79 C1503.68,1502.18 1505.79,1500.07 1508.4,1500.07 C1511.01,1500.07 1513.12,1502.18 1513.12,1504.79 " vector-effect="non-scaling-stroke"/>
   <path fill-rule="evenodd" d="M1536.14,1589.7 C1536.14,1592.31 1534.03,1594.42 1531.42,1594.42 C1528.81,1594.42 1526.69,1592.31 1526.69,1589.7 C1526.69,1587.09 1528.81,1584.97 1531.42,1584.97 C1534.03,1584.97 1536.14,1587.09 1536.14,1589.7 " vector-effect="non-scaling-stroke"/>
   <path fill-rule="evenodd" d="M1383.1,1539.67 C1383.1,1542.28 1380.98,1544.4 1378.37,1544.4 C1375.76,1544.4 1373.65,1542.28 1373.65,1539.67 C1373.65,1537.07 1375.76,1534.95 1378.37,1534.95 C1380.98,1534.95 1383.1,1537.07 1383.1,1539.67 " vector-effect="non-scaling-stroke"/>
   <path fill-rule="evenodd" d="M1489.4,1015.11 C1489.4,1017.72 1487.29,1019.84 1484.68,1019.84 C1482.07,1019.84 1479.95,1017.72 1479.95,1015.11 C1479.95,1012.5 1482.07,1010.39 1484.68,1010.39 C1487.29,1010.39 1489.4,1012.5 1489.4,1015.11 " vector-effect="non-scaling-stroke"/>
   <path fill-rule="evenodd" d="M1496.74,1021.46 C1496.74,1024.07 1494.62,1026.19 1492.01,1026.19 C1489.41,1026.19 1487.29,1024.07 1487.29,1021.46 C1487.29,1018.85 1489.41,1016.74 1492.01,1016.74 C1494.62,1016.74 1496.74,1018.85 1496.74,1021.46 " vector-effect="non-scaling-stroke"/>
   <path fill-rule="evenodd" d="M1841.75,906.904 C1841.75,909.514 1839.63,911.629 1837.02,911.629 C1834.41,911.629 1832.3,909.514 1832.3,906.904 C1832.3,904.295 1834.41,902.18 1837.02,902.18 C1839.63,902.18 1841.75,904.295 1841.75,906.904 " vector-effect="non-scaling-stroke"/>
   <path fill-rule="evenodd" d="M1816.78,1947.6 C1816.78,1950.21 1814.66,1952.33 1812.05,1952.33 C1809.44,1952.33 1807.33,1950.21 1807.33,1947.6 C1807.33,1944.99 1809.44,1942.88 1812.05,1942.88 C1814.66,1942.88 1816.78,1944.99 1816.78,1947.6 " vector-effect="non-scaling-stroke"/>
   <path fill-rule="evenodd" d="M1649.54,1726.22 C1649.54,1728.83 1647.43,1730.95 1644.82,1730.95 C1642.21,1730.95 1640.1,1728.83 1640.1,1726.22 C1640.1,1723.61 1642.21,1721.5 1644.82,1721.5 C1647.43,1721.5 1649.54,1723.61 1649.54,1726.22 " vector-effect="non-scaling-stroke"/>
   <path fill-rule="evenodd" d="M1696.28,1822.69 C1696.28,1825.3 1694.17,1827.42 1691.56,1827.42 C1688.95,1827.42 1686.83,1825.3 1686.83,1822.69 C1686.83,1820.08 1688.95,1817.97 1691.56,1817.97 C1694.17,1817.97 1696.28,1820.08 1696.28,1822.69 " vector-effect="non-scaling-stroke"/>
   <path fill-rule="evenodd" d="M1738.27,1653.49 C1738.27,1656.1 1736.15,1658.22 1733.54,1658.22 C1730.93,1658.22 1728.82,1656.1 1728.82,1653.49 C1728.82,1650.88 1730.93,1648.77 1733.54,1648.77 C1736.15,1648.77 1738.27,1650.88 1738.27,1653.49 " vector-effect="non-scaling-stroke"/>
   <path fill-rule="evenodd" d="M1916.25,1532.91 C1916.25,1535.52 1914.13,1537.63 1911.52,1537.63 C1908.91,1537.63 1906.8,1535.52 1906.8,1532.91 C1906.8,1530.3 1908.91,1528.18 1911.52,1528.18 C1914.13,1528.18 1916.25,1530.3 1916.25,1532.91 " vector-effect="non-scaling-stroke"/>
   <path fill-rule="evenodd" d="M1545.81,1519.79 C1545.81,1522.4 1543.69,1524.51 1541.08,1524.51 C1538.47,1524.51 1536.36,1522.4 1536.36,1519.79 C1536.36,1517.18 1538.47,1515.06 1541.08,1515.06 C1543.69,1515.06 1545.81,1517.18 1545.81,1519.79 " vector-effect="non-scaling-stroke"/>
   <path fill-rule="evenodd" d="M1760.38,990.698 C1760.38,993.308 1758.27,995.423 1755.66,995.423 C1753.05,995.423 1750.93,993.308 1750.93,990.698 C1750.93,988.089 1753.05,985.974 1755.66,985.974 C1758.27,985.974 1760.38,988.089 1760.38,990.698 " vector-effect="non-scaling-stroke"/>
   <path fill-rule="evenodd" d="M1761.96,1184.7 C1761.96,1187.31 1759.84,1189.43 1757.24,1189.43 C1754.63,1189.43 1752.51,1187.31 1752.51,1184.7 C1752.51,1182.09 1754.63,1179.98 1757.24,1179.98 C1759.84,1179.98 1761.96,1182.09 1761.96,1184.7 " vector-effect="non-scaling-stroke"/>
   <path fill-rule="evenodd" d="M2171.89,1046.86 C2171.89,1049.47 2169.78,1051.59 2167.17,1051.59 C2164.56,1051.59 2162.44,1049.47 2162.44,1046.86 C2162.44,1044.25 2164.56,1042.14 2167.17,1042.14 C2169.78,1042.14 2171.89,1044.25 2171.89,1046.86 " vector-effect="non-scaling-stroke"/>
   <path fill-rule="evenodd" d="M1566.43,1673.28 C1566.43,1675.88 1564.32,1678 1561.71,1678 C1559.1,1678 1556.98,1675.88 1556.98,1673.28 C1556.98,1670.67 1559.1,1668.55 1561.71,1668.55 C1564.32,1668.55 1566.43,1670.67 1566.43,1673.28 " vector-effect="non-scaling-stroke"/>
   <path fill-rule="evenodd" d="M1565.01,1671.24 C1565.01,1673.85 1562.89,1675.97 1560.28,1675.97 C1557.67,1675.97 1555.56,1673.85 1555.56,1671.24 C1555.56,1668.64 1557.67,1666.52 1560.28,1666.52 C1562.89,1666.52 1565.01,1668.64 1565.01,1671.24 " vector-effect="non-scaling-stroke"/>
   <path fill-rule="evenodd" d="M1980.94,1371.78 C1980.94,1374.39 1978.83,1376.5 1976.22,1376.5 C1973.61,1376.5 1971.5,1374.39 1971.5,1371.78 C1971.5,1369.17 1973.61,1367.05 1976.22,1367.05 C1978.83,1367.05 1980.94,1369.17 1980.94,1371.78 " vector-effect="non-scaling-stroke"/>
   <path fill-rule="evenodd" d="M2345.25,445.69 C2345.25,448.3 2343.14,450.415 2340.53,450.415 C2337.92,450.415 2335.8,448.3 2335.8,445.69 C2335.8,443.081 2337.92,440.966 2340.53,440.966 C2343.14,440.966 2345.25,443.081 2345.25,445.69 " vector-effect="non-scaling-stroke"/>
   <path fill-rule="evenodd" d="M1911.44,1699.58 C1911.44,1702.19 1909.33,1704.31 1906.72,1704.31 C1904.11,1704.31 1901.99,1702.19 1901.99,1699.58 C1901.99,1696.97 1904.11,1694.86 1906.72,1694.86 C1909.33,1694.86 1911.44,1696.97 1911.44,1699.58 " vector-effect="non-scaling-stroke"/>
   <path fill-rule="evenodd" d="M1943.23,703.744 C1943.23,706.353 1941.12,708.468 1938.51,708.468 C1935.9,708.468 1933.78,706.353 1933.78,703.744 C1933.78,701.134 1935.9,699.019 1938.51,699.019 C1941.12,699.019 1943.23,701.134 1943.23,703.744 " vector-effect="non-scaling-stroke"/>
   <path fill-rule="evenodd" d="M1911.32,592.632 C1911.32,595.242 1909.21,597.357 1906.6,597.357 C1903.99,597.357 1901.87,595.242 1901.87,592.632 C1901.87,590.023 1903.99,587.908 1906.6,587.908 C1909.21,587.908 1911.32,590.023 1911.32,592.632 " vector-effect="non-scaling-stroke"/>
   <path fill-rule="evenodd" d="M2063.57,1601.7 C2063.57,1604.31 2061.45,1606.42 2058.85,1606.42 C2056.24,1606.42 2054.12,1604.31 2054.12,1601.7 C2054.12,1599.09 2056.24,1596.97 2058.85,1596.97 C2061.45,1596.97 2063.57,1599.09 2063.57,1601.7 " vector-effect="non-scaling-stroke"/>
   <path fill-rule="evenodd" d="M2282.51,1060.38 C2282.51,1062.99 2280.39,1065.1 2277.78,1065.1 C2275.17,1065.1 2273.06,1062.99 2273.06,1060.38 C2273.06,1057.77 2275.17,1055.65 2277.78,1055.65 C2280.39,1055.65 2282.51,1057.77 2282.51,1060.38 " vector-effect="non-scaling-stroke"/>
   <path fill-rule="evenodd" d="M1948.78,777.364 C1948.78,779.973 1946.66,782.088 1944.05,782.088 C1941.44,782.088 1939.33,779.973 1939.33,777.364 C1939.33,774.755 1941.44,772.639 1944.05,772.639 C1946.66,772.639 1948.78,774.755 1948.78,777.364 " vector-effect="non-scaling-stroke"/>
   <path fill-rule="evenodd" d="M1739.33,975.767 C1739.33,978.377 1737.22,980.492 1734.61,980.492 C1732,980.492 1729.89,978.377 1729.89,975.767 C1729.89,973.158 1732,971.043 1734.61,971.043 C1737.22,971.043 1739.33,973.158 1739.33,975.767 " vector-effect="non-scaling-stroke"/>
   <path fill-rule="evenodd" d="M1691.47,1964.62 C1691.47,1967.23 1689.36,1969.35 1686.75,1969.35 C1684.14,1969.35 1682.03,1967.23 1682.03,1964.62 C1682.03,1962.01 1684.14,1959.9 1686.75,1959.9 C1689.36,1959.9 1691.47,1962.01 1691.47,1964.62 " vector-effect="non-scaling-stroke"/>
   <path fill-rule="evenodd" d="M1678.74,1276.83 C1678.74,1279.44 1676.63,1281.55 1674.02,1281.55 C1671.41,1281.55 1669.3,1279.44 1669.3,1276.83 C1669.3,1274.22 1671.41,1272.11 1674.02,1272.11 C1676.63,1272.11 1678.74,1274.22 1678.74,1276.83 " vector-effect="non-scaling-stroke"/>
   <path fill-rule="evenodd" d="M1994.04,1482.47 C1994.04,1485.08 1991.92,1487.19 1989.31,1487.19 C1986.7,1487.19 1984.59,1485.08 1984.59,1482.47 C1984.59,1479.86 1986.7,1477.74 1989.31,1477.74 C1991.92,1477.74 1994.04,1479.86 1994.04,1482.47 " vector-effect="non-scaling-stroke"/>
   <path fill-rule="evenodd" d="M1429.49,1568.6 C1429.49,1571.21 1427.38,1573.33 1424.77,1573.33 C1422.16,1573.33 1420.05,1571.21 1420.05,1568.6 C1420.05,1565.99 1422.16,1563.88 1424.77,1563.88 C1427.38,1563.88 1429.49,1565.99 1429.49,1568.6 " vector-effect="non-scaling-stroke"/>
   <path fill-rule="evenodd" d="M1732.39,2053.86 C1732.39,2056.47 1730.27,2058.59 1727.66,2058.59 C1725.06,2058.59 1722.94,2056.47 1722.94,2053.86 C1722.94,2051.25 1725.06,2049.14 1727.66,2049.14 C1730.27,2049.14 1732.39,2051.25 1732.39,2053.86 " vector-effect="non-scaling-stroke"/>
   <path fill-rule="evenodd" d="M1978.55,1686.48 C1978.55,1689.09 1976.43,1691.2 1973.82,1691.2 C1971.21,1691.2 1969.1,1689.09 1969.1,1686.48 C1969.1,1683.87 1971.21,1681.75 1973.82,1681.75 C1976.43,1681.75 1978.55,1683.87 1978.55,1686.48 " vector-effect="non-scaling-stroke"/>
   <path fill-rule="evenodd" d="M1880.71,921.902 C1880.71,924.512 1878.59,926.627 1875.98,926.627 C1873.37,926.627 1871.26,924.512 1871.26,921.902 C1871.26,919.293 1873.37,917.178 1875.98,917.178 C1878.59,917.178 1880.71,919.293 1880.71,921.902 " vector-effect="non-scaling-stroke"/>
   <path fill-rule="evenodd" d="M1717.94,1915.44 C1717.94,1918.05 1715.82,1920.17 1713.22,1920.17 C1710.61,1920.17 1708.49,1918.05 1708.49,1915.44 C1708.49,1912.83 1710.61,1910.72 1713.22,1910.72 C1715.82,1910.72 1717.94,1912.83 1717.94,1915.44 " vector-effect="non-scaling-stroke"/>
   <path fill-rule="evenodd" d="M2184.43,1649.7 C2184.43,1652.31 2182.32,1654.42 2179.71,1654.42 C2177.1,1654.42 2174.98,1652.31 2174.98,1649.7 C2174.98,1647.09 2177.1,1644.97 2179.71,1644.97 C2182.32,1644.97 2184.43,1647.09 2184.43,1649.7 " vector-effect="non-scaling-stroke"/>
   <path fill-rule="evenodd" d="M1998.82,992.78 C1998.82,995.39 1996.7,997.505 1994.09,997.505 C1991.48,997.505 1989.37,995.39 1989.37,992.78 C1989.37,990.171 1991.48,988.056 1994.09,988.056 C1996.7,988.056 1998.82,990.171 1998.82,992.78 " vector-effect="non-scaling-stroke"/>
   <path fill-rule="evenodd" d="M1814.17,1388.17 C1814.17,1390.78 1812.06,1392.89 1809.45,1392.89 C1806.84,1392.89 1804.72,1390.78 1804.72,1388.17 C1804.72,1385.56 1806.84,1383.44 1809.45,1383.44 C1812.06,1383.44 1814.17,1385.56 1814.17,1388.17 " vector-effect="non-scaling-stroke"/>
   <path fill-rule="evenodd" d="M1666.93,1729.77 C1666.93,1732.38 1664.82,1734.5 1662.21,1734.5 C1659.6,1734.5 1657.48,1732.38 1657.48,1729.77 C1657.48,1727.17 1659.6,1725.05 1662.21,1725.05 C1664.82,1725.05 1666.93,1727.17 1666.93,1729.77 " vector-effect="non-scaling-stroke"/>
   <path fill-rule="evenodd" d="M1536.39,1637.39 C1536.39,1640 1534.28,1642.12 1531.67,1642.12 C1529.06,1642.12 1526.95,1640 1526.95,1637.39 C1526.95,1634.79 1529.06,1632.67 1531.67,1632.67 C1534.28,1632.67 1536.39,1634.79 1536.39,1637.39 " vector-effect="non-scaling-stroke"/>
   <path fill-rule="evenodd" d="M2007.62,1551.29 C2007.62,1553.9 2005.51,1556.02 2002.9,1556.02 C2000.29,1556.02 1998.17,1553.9 1998.17,1551.29 C1998.17,1548.68 2000.29,1546.57 2002.9,1546.57 C2005.51,1546.57 2007.62,1548.68 2007.62,1551.29 " vector-effect="non-scaling-stroke"/>
   <path fill-rule="evenodd" d="M2121.75,1568.61 C2121.75,1571.22 2119.63,1573.33 2117.03,1573.33 C2114.42,1573.33 2112.3,1571.22 2112.3,1568.61 C2112.3,1566 2114.42,1563.88 2117.03,1563.88 C2119.63,1563.88 2121.75,1566 2121.75,1568.61 " vector-effect="non-scaling-stroke"/>
   <path fill-rule="evenodd" d="M1679.78,1561.2 C1679.78,1563.81 1677.66,1565.93 1675.05,1565.93 C1672.44,1565.93 1670.33,1563.81 1670.33,1561.2 C1670.33,1558.59 1672.44,1556.48 1675.05,1556.48 C1677.66,1556.48 1679.78,1558.59 1679.78,1561.2 " vector-effect="non-scaling-stroke"/>
   <path fill-rule="evenodd" d="M1796.94,1468.38 C1796.94,1470.99 1794.82,1473.11 1792.22,1473.11 C1789.61,1473.11 1787.49,1470.99 1787.49,1468.38 C1787.49,1465.78 1789.61,1463.66 1792.22,1463.66 C1794.82,1463.66 1796.94,1465.78 1796.94,1468.38 " vector-effect="non-scaling-stroke"/>
   <path fill-rule="evenodd" d="M1350.85,1489.21 C1350.85,1491.82 1348.74,1493.93 1346.13,1493.93 C1343.52,1493.93 1341.4,1491.82 1341.4,1489.21 C1341.4,1486.6 1343.52,1484.49 1346.13,1484.49 C1348.74,1484.49 1350.85,1486.6 1350.85,1489.21 " vector-effect="non-scaling-stroke"/>
   <path fill-rule="evenodd" d="M2015.28,2085.13 C2015.28,2087.74 2013.17,2089.86 2010.56,2089.86 C2007.95,2089.86 2005.84,2087.74 2005.84,2085.13 C2005.84,2082.52 2007.95,2080.41 2010.56,2080.41 C2013.17,2080.41 2015.28,2082.52 2015.28,2085.13 " vector-effect="non-scaling-stroke"/>
   <path fill-rule="evenodd" d="M1755.15,670.324 C1755.15,672.933 1753.03,675.048 1750.42,675.048 C1747.81,675.048 1745.7,672.933 1745.7,670.324 C1745.7,667.715 1747.81,665.599 1750.42,665.599 C1753.03,665.599 1755.15,667.715 1755.15,670.324 " vector-effect="non-scaling-stroke"/>
   <path fill-rule="evenodd" d="M1651.15,1519.98 C1651.15,1522.59 1649.04,1524.71 1646.43,1524.71 C1643.82,1524.71 1641.71,1522.59 1641.71,1519.98 C1641.71,1517.37 1643.82,1515.26 1646.43,1515.26 C1649.04,1515.26 1651.15,1517.37 1651.15,1519.98 " vector-effect="non-scaling-stroke"/>
   <path fill-rule="evenodd" d="M1602.91,1171.69 C1602.91,1174.3 1600.79,1176.42 1598.18,1176.42 C1595.57,1176.42 1593.46,1174.3 1593.46,1171.69 C1593.46,1169.08 1595.57,1166.97 1598.18,1166.97 C1600.79,1166.97 1602.91,1169.08 1602.91,1171.69 " vector-effect="non-scaling-stroke"/>
   <path fill-rule="evenodd" d="M1653.45,1735.82 C1653.45,1738.43 1651.34,1740.55 1648.73,1740.55 C1646.12,1740.55 1644,1738.43 1644,1735.82 C1644,1733.21 1646.12,1731.1 1648.73,1731.1 C1651.34,1731.1 1653.45,1733.21 1653.45,1735.82 " vector-effect="non-scaling-stroke"/>
   <path fill-rule="evenodd" d="M2062.51,1705.28 C2062.51,1707.88 2060.39,1710 2057.78,1710 C2055.17,1710 2053.06,1707.88 2053.06,1705.28 C2053.06,1702.67 2055.17,1700.55 2057.78,1700.55 C2060.39,1700.55 2062.51,1702.67 2062.51,1705.28 " vector-effect="non-scaling-stroke"/>
   <path fill-rule="evenodd" d="M1713.54,922.514 C1713.54,925.123 1711.42,927.238 1708.82,927.238 C1706.21,927.238 1704.09,925.123 1704.09,922.514 C1704.09,919.905 1706.21,917.789 1708.82,917.789 C1711.42,917.789 1713.54,919.905 1713.54,922.514 " vector-effect="non-scaling-stroke"/>
   <path fill-rule="evenodd" d="M2364.41,573.45 C2364.41,576.059 2362.29,578.175 2359.68,578.175 C2357.07,578.175 2354.96,576.059 2354.96,573.45 C2354.96,570.841 2357.07,568.726 2359.68,568.726 C2362.29,568.726 2364.41,570.841 2364.41,573.45 " vector-effect="non-scaling-stroke"/>
   <path fill-rule="evenodd" d="M1668.57,1890.98 C1668.57,1893.59 1666.46,1895.7 1663.85,1895.7 C1661.24,1895.7 1659.13,1893.59 1659.13,1890.98 C1659.13,1888.37 1661.24,1886.26 1663.85,1886.26 C1666.46,1886.26 1668.57,1888.37 1668.57,1890.98 " vector-effect="non-scaling-stroke"/>
   <path fill-rule="evenodd" d="M1783.61,1887.18 C1783.61,1889.79 1781.49,1891.9 1778.88,1891.9 C1776.27,1891.9 1774.16,1889.79 1774.16,1887.18 C1774.16,1884.57 1776.27,1882.45 1778.88,1882.45 C1781.49,1882.45 1783.61,1884.57 1783.61,1887.18 " vector-effect="non-scaling-stroke"/>
   <path fill-rule="evenodd" d="M2132.37,1594.64 C2132.37,1597.25 2130.25,1599.37 2127.64,1599.37 C2125.03,1599.37 2122.92,1597.25 2122.92,1594.64 C2122.92,1592.03 2125.03,1589.92 2127.64,1589.92 C2130.25,1589.92 2132.37,1592.03 2132.37,1594.64 " vector-effect="non-scaling-stroke"/>
   <path fill-rule="evenodd" d="M1459.21,1463.99 C1459.21,1466.6 1457.09,1468.71 1454.48,1468.71 C1451.87,1468.71 1449.76,1466.6 1449.76,1463.99 C1449.76,1461.38 1451.87,1459.26 1454.48,1459.26 C1457.09,1459.26 1459.21,1461.38 1459.21,1463.99 " vector-effect="non-scaling-stroke"/>
   <path fill-rule="evenodd" d="M1931.4,1871.86 C1931.4,1874.47 1929.28,1876.59 1926.67,1876.59 C1924.06,1876.59 1921.95,1874.47 1921.95,1871.86 C1921.95,1869.25 1924.06,1867.14 1926.67,1867.14 C1929.28,1867.14 1931.4,1869.25 1931.4,1871.86 " vector-effect="non-scaling-stroke"/>
   <path fill-rule="evenodd" d="M1335.39,1437.84 C1335.39,1440.44 1333.28,1442.56 1330.67,1442.56 C1328.06,1442.56 1325.95,1440.44 1325.95,1437.84 C1325.95,1435.23 1328.06,1433.11 1330.67,1433.11 C1333.28,1433.11 1335.39,1435.23 1335.39,1437.84 " vector-effect="non-scaling-stroke"/>
   <path fill-rule="evenodd" d="M1702.54,1997.57 C1702.54,2000.18 1700.42,2002.29 1697.81,2002.29 C1695.21,2002.29 1693.09,2000.18 1693.09,1997.57 C1693.09,1994.96 1695.21,1992.84 1697.81,1992.84 C1700.42,1992.84 1702.54,1994.96 1702.54,1997.57 " vector-effect="non-scaling-stroke"/>
   <path fill-rule="evenodd" d="M1562.77,1075.56 C1562.77,1078.17 1560.65,1080.29 1558.05,1080.29 C1555.44,1080.29 1553.32,1078.17 1553.32,1075.56 C1553.32,1072.95 1555.44,1070.84 1558.05,1070.84 C1560.65,1070.84 1562.77,1072.95 1562.77,1075.56 " vector-effect="non-scaling-stroke"/>
   <path fill-rule="evenodd" d="M1812.56,1717.59 C1812.56,1720.2 1810.44,1722.31 1807.84,1722.31 C1805.23,1722.31 1803.11,1720.2 1803.11,1717.59 C1803.11,1714.98 1805.23,1712.86 1807.84,1712.86 C1810.44,1712.86 1812.56,1714.98 1812.56,1717.59 " vector-effect="non-scaling-stroke"/>
   <path fill-rule="evenodd" d="M1862.08,2267.61 C1862.08,2270.22 1859.97,2272.34 1857.36,2272.34 C1854.75,2272.34 1852.63,2270.22 1852.63,2267.61 C1852.63,2265 1854.75,2262.89 1857.36,2262.89 C1859.97,2262.89 1862.08,2265 1862.08,2267.61 " vector-effect="non-scaling-stroke"/>
   <path fill-rule="evenodd" d="M1846.26,2214.47 C1846.26,2217.08 1844.15,2219.19 1841.54,2219.19 C1838.93,2219.19 1836.81,2217.08 1836.81,2214.47 C1836.81,2211.86 1838.93,2209.74 1841.54,2209.74 C1844.15,2209.74 1846.26,2211.86 1846.26,2214.47 " vector-effect="non-scaling-stroke"/>
   <path fill-rule="evenodd" d="M1327.49,1484.36 C1327.49,1486.97 1325.38,1489.08 1322.77,1489.08 C1320.16,1489.08 1318.05,1486.97 1318.05,1484.36 C1318.05,1481.75 1320.16,1479.64 1322.77,1479.64 C1325.38,1479.64 1327.49,1481.75 1327.49,1484.36 " vector-effect="non-scaling-stroke"/>
   <path fill-rule="evenodd" d="M1610.25,1833.54 C1610.25,1836.15 1608.14,1838.26 1605.53,1838.26 C1602.92,1838.26 1600.8,1836.15 1600.8,1833.54 C1600.8,1830.93 1602.92,1828.81 1605.53,1828.81 C1608.14,1828.81 1610.25,1830.93 1610.25,1833.54 " vector-effect="non-scaling-stroke"/>
   <path fill-rule="evenodd" d="M1946.65,2301.66 C1946.65,2304.27 1944.54,2306.38 1941.93,2306.38 C1939.32,2306.38 1937.2,2304.27 1937.2,2301.66 C1937.2,2299.05 1939.32,2296.93 1941.93,2296.93 C1944.54,2296.93 1946.65,2299.05 1946.65,2301.66 " vector-effect="non-scaling-stroke"/>
   <path fill-rule="evenodd" d="M2220.37,1147.69 C2220.37,1150.3 2218.26,1152.41 2215.65,1152.41 C2213.04,1152.41 2210.92,1150.3 2210.92,1147.69 C2210.92,1145.08 2213.04,1142.96 2215.65,1142.96 C2218.26,1142.96 2220.37,1145.08 2220.37,1147.69 " vector-effect="non-scaling-stroke"/>
   <path fill-rule="evenodd" d="M1343.41,1559.64 C1343.41,1562.25 1341.29,1564.37 1338.68,1564.37 C1336.07,1564.37 1333.96,1562.25 1333.96,1559.64 C1333.96,1557.03 1336.07,1554.92 1338.68,1554.92 C1341.29,1554.92 1343.41,1557.03 1343.41,1559.64 " vector-effect="non-scaling-stroke"/>
   <path fill-rule="evenodd" d="M2510.88,688.042 C2510.88,690.651 2508.76,692.766 2506.15,692.766 C2503.54,692.766 2501.43,690.651 2501.43,688.042 C2501.43,685.432 2503.54,683.317 2506.15,683.317 C2508.76,683.317 2510.88,685.432 2510.88,688.042 " vector-effect="non-scaling-stroke"/>
   <path fill-rule="evenodd" d="M1649.75,1610.6 C1649.75,1613.21 1647.64,1615.33 1645.03,1615.33 C1642.42,1615.33 1640.31,1613.21 1640.31,1610.6 C1640.31,1608 1642.42,1605.88 1645.03,1605.88 C1647.64,1605.88 1649.75,1608 1649.75,1610.6 " vector-effect="non-scaling-stroke"/>
   <path fill-rule="evenodd" d="M1926.54,958.177 C1926.54,960.786 1924.43,962.902 1921.82,962.902 C1919.21,962.902 1917.09,960.786 1917.09,958.177 C1917.09,955.568 1919.21,953.453 1921.82,953.453 C1924.43,953.453 1926.54,955.568 1926.54,958.177 " vector-effect="non-scaling-stroke"/>
   <path fill-rule="evenodd" d="M1702.22,1749.55 C1702.22,1752.16 1700.1,1754.28 1697.49,1754.28 C1694.88,1754.28 1692.77,1752.16 1692.77,1749.55 C1692.77,1746.94 1694.88,1744.83 1697.49,1744.83 C1700.1,1744.83 1702.22,1746.94 1702.22,1749.55 " vector-effect="non-scaling-stroke"/>
   <path fill-rule="evenodd" d="M2043.91,1735.4 C2043.91,1738.01 2041.8,1740.13 2039.19,1740.13 C2036.58,1740.13 2034.46,1738.01 2034.46,1735.4 C2034.46,1732.79 2036.58,1730.68 2039.19,1730.68 C2041.8,1730.68 2043.91,1732.79 2043.91,1735.4 " vector-effect="non-scaling-stroke"/>
   <path fill-rule="evenodd" d="M1839.58,1432.92 C1839.58,1435.53 1837.47,1437.64 1834.86,1437.64 C1832.25,1437.64 1830.13,1435.53 1830.13,1432.92 C1830.13,1430.31 1832.25,1428.2 1834.86,1428.2 C1837.47,1428.2 1839.58,1430.31 1839.58,1432.92 " vector-effect="non-scaling-stroke"/>
   <path fill-rule="evenodd" d="M1853.95,2212.41 C1853.95,2215.01 1851.84,2217.13 1849.23,2217.13 C1846.62,2217.13 1844.51,2215.01 1844.51,2212.41 C1844.51,2209.8 1846.62,2207.68 1849.23,2207.68 C1851.84,2207.68 1853.95,2209.8 1853.95,2212.41 " vector-effect="non-scaling-stroke"/>
   <path fill-rule="evenodd" d="M2150.04,957.498 C2150.04,960.107 2147.92,962.222 2145.31,962.222 C2142.7,962.222 2140.59,960.107 2140.59,957.498 C2140.59,954.889 2142.7,952.773 2145.31,952.773 C2147.92,952.773 2150.04,954.889 2150.04,957.498 " vector-effect="non-scaling-stroke"/>
   <path fill-rule="evenodd" d="M2047.57,1030.07 C2047.57,1032.68 2045.45,1034.8 2042.84,1034.8 C2040.24,1034.8 2038.12,1032.68 2038.12,1030.07 C2038.12,1027.46 2040.24,1025.35 2042.84,1025.35 C2045.45,1025.35 2047.57,1027.46 2047.57,1030.07 " vector-effect="non-scaling-stroke"/>
   <path fill-rule="evenodd" d="M1589.66,1428.65 C1589.66,1431.26 1587.55,1433.37 1584.94,1433.37 C1582.33,1433.37 1580.21,1431.26 1580.21,1428.65 C1580.21,1426.04 1582.33,1423.93 1584.94,1423.93 C1587.55,1423.93 1589.66,1426.04 1589.66,1428.65 " vector-effect="non-scaling-stroke"/>
   <path fill-rule="evenodd" d="M1588.71,1436.5 C1588.71,1439.11 1586.59,1441.23 1583.98,1441.23 C1581.37,1441.23 1579.26,1439.11 1579.26,1436.5 C1579.26,1433.89 1581.37,1431.78 1583.98,1431.78 C1586.59,1431.78 1588.71,1433.89 1588.71,1436.5 " vector-effect="non-scaling-stroke"/>
   <path fill-rule="evenodd" d="M2231.03,1361.21 C2231.03,1363.82 2228.92,1365.94 2226.31,1365.94 C2223.7,1365.94 2221.58,1363.82 2221.58,1361.21 C2221.58,1358.6 2223.7,1356.49 2226.31,1356.49 C2228.92,1356.49 2231.03,1358.6 2231.03,1361.21 " vector-effect="non-scaling-stroke"/>
   <path fill-rule="evenodd" d="M1651.69,1304.03 C1651.69,1306.63 1649.58,1308.75 1646.97,1308.75 C1644.36,1308.75 1642.24,1306.63 1642.24,1304.03 C1642.24,1301.42 1644.36,1299.3 1646.97,1299.3 C1649.58,1299.3 1651.69,1301.42 1651.69,1304.03 " vector-effect="non-scaling-stroke"/>
   <path fill-rule="evenodd" d="M1486.44,1012.22 C1486.44,1014.83 1484.32,1016.95 1481.71,1016.95 C1479.1,1016.95 1476.99,1014.83 1476.99,1012.22 C1476.99,1009.62 1479.1,1007.5 1481.71,1007.5 C1484.32,1007.5 1486.44,1009.62 1486.44,1012.22 " vector-effect="non-scaling-stroke"/>
   <path fill-rule="evenodd" d="M1973.7,1082.63 C1973.7,1085.24 1971.58,1087.36 1968.97,1087.36 C1966.37,1087.36 1964.25,1085.24 1964.25,1082.63 C1964.25,1080.02 1966.37,1077.91 1968.97,1077.91 C1971.58,1077.91 1973.7,1080.02 1973.7,1082.63 " vector-effect="non-scaling-stroke"/>
   <path fill-rule="evenodd" d="M2118.48,1593.98 C2118.48,1596.59 2116.36,1598.7 2113.75,1598.7 C2111.14,1598.7 2109.03,1596.59 2109.03,1593.98 C2109.03,1591.37 2111.14,1589.25 2113.75,1589.25 C2116.36,1589.25 2118.48,1591.37 2118.48,1593.98 " vector-effect="non-scaling-stroke"/>
   <path fill-rule="evenodd" d="M1982.11,1309.82 C1982.11,1312.43 1980,1314.54 1977.39,1314.54 C1974.78,1314.54 1972.66,1312.43 1972.66,1309.82 C1972.66,1307.21 1974.78,1305.1 1977.39,1305.1 C1980,1305.1 1982.11,1307.21 1982.11,1309.82 " vector-effect="non-scaling-stroke"/>
   <path fill-rule="evenodd" d="M2104.78,1281.05 C2104.78,1283.66 2102.67,1285.77 2100.06,1285.77 C2097.45,1285.77 2095.33,1283.66 2095.33,1281.05 C2095.33,1278.44 2097.45,1276.32 2100.06,1276.32 C2102.67,1276.32 2104.78,1278.44 2104.78,1281.05 " vector-effect="non-scaling-stroke"/>
   <path fill-rule="evenodd" d="M1543.36,1482.69 C1543.36,1485.3 1541.25,1487.41 1538.64,1487.41 C1536.03,1487.41 1533.91,1485.3 1533.91,1482.69 C1533.91,1480.08 1536.03,1477.96 1538.64,1477.96 C1541.25,1477.96 1543.36,1480.08 1543.36,1482.69 " vector-effect="non-scaling-stroke"/>
   <path fill-rule="evenodd" d="M2181.25,1528.82 C2181.25,1531.43 2179.14,1533.54 2176.53,1533.54 C2173.92,1533.54 2171.8,1531.43 2171.8,1528.82 C2171.8,1526.21 2173.92,1524.09 2176.53,1524.09 C2179.14,1524.09 2181.25,1526.21 2181.25,1528.82 " vector-effect="non-scaling-stroke"/>
   <path fill-rule="evenodd" d="M1589.67,1428.58 C1589.67,1431.19 1587.55,1433.3 1584.94,1433.3 C1582.34,1433.3 1580.22,1431.19 1580.22,1428.58 C1580.22,1425.97 1582.34,1423.85 1584.94,1423.85 C1587.55,1423.85 1589.67,1425.97 1589.67,1428.58 " vector-effect="non-scaling-stroke"/>
   <path fill-rule="evenodd" d="M1706.66,2010.27 C1706.66,2012.88 1704.55,2015 1701.94,2015 C1699.33,2015 1697.21,2012.88 1697.21,2010.27 C1697.21,2007.66 1699.33,2005.55 1701.94,2005.55 C1704.55,2005.55 1706.66,2007.66 1706.66,2010.27 " vector-effect="non-scaling-stroke"/>
   <path fill-rule="evenodd" d="M1299.39,1558.88 C1299.39,1561.49 1297.27,1563.6 1294.66,1563.6 C1292.06,1563.6 1289.94,1561.49 1289.94,1558.88 C1289.94,1556.27 1292.06,1554.15 1294.66,1554.15 C1297.27,1554.15 1299.39,1556.27 1299.39,1558.88 " vector-effect="non-scaling-stroke"/>
   <path fill-rule="evenodd" d="M1864.4,2267.01 C1864.4,2269.62 1862.29,2271.73 1859.68,2271.73 C1857.07,2271.73 1854.95,2269.62 1854.95,2267.01 C1854.95,2264.4 1857.07,2262.28 1859.68,2262.28 C1862.29,2262.28 1864.4,2264.4 1864.4,2267.01 " vector-effect="non-scaling-stroke"/>
   <path fill-rule="evenodd" d="M1822.06,1772.08 C1822.06,1774.68 1819.94,1776.8 1817.33,1776.8 C1814.73,1776.8 1812.61,1774.68 1812.61,1772.08 C1812.61,1769.47 1814.73,1767.35 1817.33,1767.35 C1819.94,1767.35 1822.06,1769.47 1822.06,1772.08 " vector-effect="non-scaling-stroke"/>
   <path fill-rule="evenodd" d="M2117.66,599.292 C2117.66,601.901 2115.55,604.016 2112.94,604.016 C2110.33,604.016 2108.21,601.901 2108.21,599.292 C2108.21,596.683 2110.33,594.568 2112.94,594.568 C2115.55,594.568 2117.66,596.683 2117.66,599.292 " vector-effect="non-scaling-stroke"/>
   <path fill-rule="evenodd" d="M1819.75,1636.99 C1819.75,1639.6 1817.64,1641.71 1815.03,1641.71 C1812.42,1641.71 1810.3,1639.6 1810.3,1636.99 C1810.3,1634.38 1812.42,1632.26 1815.03,1632.26 C1817.64,1632.26 1819.75,1634.38 1819.75,1636.99 " vector-effect="non-scaling-stroke"/>
   <path fill-rule="evenodd" d="M1666.29,1784.71 C1666.29,1787.32 1664.18,1789.44 1661.57,1789.44 C1658.96,1789.44 1656.85,1787.32 1656.85,1784.71 C1656.85,1782.1 1658.96,1779.99 1661.57,1779.99 C1664.18,1779.99 1666.29,1782.1 1666.29,1784.71 " vector-effect="non-scaling-stroke"/>
   <path fill-rule="evenodd" d="M1768.02,1147.72 C1768.02,1150.33 1765.9,1152.45 1763.29,1152.45 C1760.69,1152.45 1758.57,1150.33 1758.57,1147.72 C1758.57,1145.11 1760.69,1143 1763.29,1143 C1765.9,1143 1768.02,1145.11 1768.02,1147.72 " vector-effect="non-scaling-stroke"/>
   <path fill-rule="evenodd" d="M1448.91,1550.75 C1448.91,1553.36 1446.8,1555.48 1444.19,1555.48 C1441.58,1555.48 1439.46,1553.36 1439.46,1550.75 C1439.46,1548.14 1441.58,1546.03 1444.19,1546.03 C1446.8,1546.03 1448.91,1548.14 1448.91,1550.75 " vector-effect="non-scaling-stroke"/>
   <path fill-rule="evenodd" d="M2108.71,1632.45 C2108.71,1635.06 2106.59,1637.17 2103.98,1637.17 C2101.38,1637.17 2099.26,1635.06 2099.26,1632.45 C2099.26,1629.84 2101.38,1627.72 2103.98,1627.72 C2106.59,1627.72 2108.71,1629.84 2108.71,1632.45 " vector-effect="non-scaling-stroke"/>
   <path fill-rule="evenodd" d="M1732.65,1111.15 C1732.65,1113.76 1730.54,1115.87 1727.93,1115.87 C1725.32,1115.87 1723.2,1113.76 1723.2,1111.15 C1723.2,1108.54 1725.32,1106.42 1727.93,1106.42 C1730.54,1106.42 1732.65,1108.54 1732.65,1111.15 " vector-effect="non-scaling-stroke"/>
   <path fill-rule="evenodd" d="M1964.33,1513.03 C1964.33,1515.64 1962.22,1517.75 1959.61,1517.75 C1957,1517.75 1954.89,1515.64 1954.89,1513.03 C1954.89,1510.42 1957,1508.3 1959.61,1508.3 C1962.22,1508.3 1964.33,1510.42 1964.33,1513.03 " vector-effect="non-scaling-stroke"/>
   <path fill-rule="evenodd" d="M1962.84,698.276 C1962.84,700.886 1960.73,703.001 1958.12,703.001 C1955.51,703.001 1953.39,700.886 1953.39,698.276 C1953.39,695.667 1955.51,693.552 1958.12,693.552 C1960.73,693.552 1962.84,695.667 1962.84,698.276 " vector-effect="non-scaling-stroke"/>
   <path fill-rule="evenodd" d="M1728.82,1910.04 C1728.82,1912.65 1726.7,1914.76 1724.1,1914.76 C1721.49,1914.76 1719.37,1912.65 1719.37,1910.04 C1719.37,1907.43 1721.49,1905.31 1724.1,1905.31 C1726.7,1905.31 1728.82,1907.43 1728.82,1910.04 " vector-effect="non-scaling-stroke"/>
   <path fill-rule="evenodd" d="M1518.19,1481.89 C1518.19,1484.5 1516.07,1486.62 1513.46,1486.62 C1510.85,1486.62 1508.74,1484.5 1508.74,1481.89 C1508.74,1479.28 1510.85,1477.17 1513.46,1477.17 C1516.07,1477.17 1518.19,1479.28 1518.19,1481.89 " vector-effect="non-scaling-stroke"/>
   <path fill-rule="evenodd" d="M2000.36,1204.71 C2000.36,1207.32 1998.24,1209.44 1995.63,1209.44 C1993.02,1209.44 1990.91,1207.32 1990.91,1204.71 C1990.91,1202.1 1993.02,1199.99 1995.63,1199.99 C1998.24,1199.99 2000.36,1202.1 2000.36,1204.71 " vector-effect="non-scaling-stroke"/>
   <path fill-rule="evenodd" d="M1870.47,1626.04 C1870.47,1628.65 1868.36,1630.76 1865.75,1630.76 C1863.14,1630.76 1861.02,1628.65 1861.02,1626.04 C1861.02,1623.43 1863.14,1621.31 1865.75,1621.31 C1868.36,1621.31 1870.47,1623.43 1870.47,1626.04 " vector-effect="non-scaling-stroke"/>
   <path fill-rule="evenodd" d="M1583.05,2042.28 C1583.05,2044.89 1580.94,2047 1578.33,2047 C1575.72,2047 1573.6,2044.89 1573.6,2042.28 C1573.6,2039.67 1575.72,2037.55 1578.33,2037.55 C1580.94,2037.55 1583.05,2039.67 1583.05,2042.28 " vector-effect="non-scaling-stroke"/>
   <path fill-rule="evenodd" d="M2252.22,992.599 C2252.22,995.208 2250.1,997.324 2247.49,997.324 C2244.88,997.324 2242.77,995.208 2242.77,992.599 C2242.77,989.99 2244.88,987.875 2247.49,987.875 C2250.1,987.875 2252.22,989.99 2252.22,992.599 " vector-effect="non-scaling-stroke"/>
   <path fill-rule="evenodd" d="M2058.36,1692.75 C2058.36,1695.36 2056.25,1697.47 2053.64,1697.47 C2051.03,1697.47 2048.92,1695.36 2048.92,1692.75 C2048.92,1690.14 2051.03,1688.03 2053.64,1688.03 C2056.25,1688.03 2058.36,1690.14 2058.36,1692.75 " vector-effect="non-scaling-stroke"/>
   <path fill-rule="evenodd" d="M2002.2,1545.85 C2002.2,1548.46 2000.09,1550.58 1997.48,1550.58 C1994.87,1550.58 1992.76,1548.46 1992.76,1545.85 C1992.76,1543.25 1994.87,1541.13 1997.48,1541.13 C2000.09,1541.13 2002.2,1543.25 2002.2,1545.85 " vector-effect="non-scaling-stroke"/>
   <path fill-rule="evenodd" d="M1930.55,1287.73 C1930.55,1290.34 1928.43,1292.45 1925.82,1292.45 C1923.21,1292.45 1921.1,1290.34 1921.1,1287.73 C1921.1,1285.12 1923.21,1283.01 1925.82,1283.01 C1928.43,1283.01 1930.55,1285.12 1930.55,1287.73 " vector-effect="non-scaling-stroke"/>
   <path fill-rule="evenodd" d="M1829.03,1398.64 C1829.03,1401.25 1826.91,1403.37 1824.3,1403.37 C1821.69,1403.37 1819.58,1401.25 1819.58,1398.64 C1819.58,1396.03 1821.69,1393.92 1824.3,1393.92 C1826.91,1393.92 1829.03,1396.03 1829.03,1398.64 " vector-effect="non-scaling-stroke"/>
   <path fill-rule="evenodd" d="M1779.25,1517.68 C1779.25,1520.29 1777.13,1522.41 1774.52,1522.41 C1771.91,1522.41 1769.8,1520.29 1769.8,1517.68 C1769.8,1515.07 1771.91,1512.96 1774.52,1512.96 C1777.13,1512.96 1779.25,1515.07 1779.25,1517.68 " vector-effect="non-scaling-stroke"/>
   <path fill-rule="evenodd" d="M1672.82,1698.06 C1672.82,1700.67 1670.71,1702.78 1668.1,1702.78 C1665.49,1702.78 1663.38,1700.67 1663.38,1698.06 C1663.38,1695.45 1665.49,1693.33 1668.1,1693.33 C1670.71,1693.33 1672.82,1695.45 1672.82,1698.06 " vector-effect="non-scaling-stroke"/>
   <path fill-rule="evenodd" d="M2264.52,931.578 C2264.52,934.188 2262.4,936.303 2259.8,936.303 C2257.19,936.303 2255.07,934.188 2255.07,931.578 C2255.07,928.969 2257.19,926.854 2259.8,926.854 C2262.4,926.854 2264.52,928.969 2264.52,931.578 " vector-effect="non-scaling-stroke"/>
   <path fill-rule="evenodd" d="M1818.21,1118.99 C1818.21,1121.6 1816.09,1123.71 1813.48,1123.71 C1810.87,1123.71 1808.76,1121.6 1808.76,1118.99 C1808.76,1116.38 1810.87,1114.26 1813.48,1114.26 C1816.09,1114.26 1818.21,1116.38 1818.21,1118.99 " vector-effect="non-scaling-stroke"/>
   <path fill-rule="evenodd" d="M1668.82,1777.1 C1668.82,1779.71 1666.71,1781.83 1664.1,1781.83 C1661.49,1781.83 1659.37,1779.71 1659.37,1777.1 C1659.37,1774.49 1661.49,1772.38 1664.1,1772.38 C1666.71,1772.38 1668.82,1774.49 1668.82,1777.1 " vector-effect="non-scaling-stroke"/>
   <path fill-rule="evenodd" d="M1927.81,1147.42 C1927.81,1150.03 1925.69,1152.14 1923.08,1152.14 C1920.47,1152.14 1918.36,1150.03 1918.36,1147.42 C1918.36,1144.81 1920.47,1142.69 1923.08,1142.69 C1925.69,1142.69 1927.81,1144.81 1927.81,1147.42 " vector-effect="non-scaling-stroke"/>
   <path fill-rule="evenodd" d="M1863.36,1985.43 C1863.36,1988.04 1861.24,1990.15 1858.63,1990.15 C1856.02,1990.15 1853.91,1988.04 1853.91,1985.43 C1853.91,1982.82 1856.02,1980.7 1858.63,1980.7 C1861.24,1980.7 1863.36,1982.82 1863.36,1985.43 " vector-effect="non-scaling-stroke"/>
   <path fill-rule="evenodd" d="M1802.78,1140.09 C1802.78,1142.7 1800.67,1144.82 1798.06,1144.82 C1795.45,1144.82 1793.33,1142.7 1793.33,1140.09 C1793.33,1137.48 1795.45,1135.37 1798.06,1135.37 C1800.67,1135.37 1802.78,1137.48 1802.78,1140.09 " vector-effect="non-scaling-stroke"/>
   <path fill-rule="evenodd" d="M1398.13,1521.86 C1398.13,1524.47 1396.02,1526.58 1393.41,1526.58 C1390.8,1526.58 1388.68,1524.47 1388.68,1521.86 C1388.68,1519.25 1390.8,1517.13 1393.41,1517.13 C1396.02,1517.13 1398.13,1519.25 1398.13,1521.86 " vector-effect="non-scaling-stroke"/>
   <path fill-rule="evenodd" d="M2295.75,717.994 C2295.75,720.603 2293.64,722.718 2291.03,722.718 C2288.42,722.718 2286.31,720.603 2286.31,717.994 C2286.31,715.385 2288.42,713.27 2291.03,713.27 C2293.64,713.27 2295.75,715.385 2295.75,717.994 " vector-effect="non-scaling-stroke"/>
   <path fill-rule="evenodd" d="M1792.58,1826.58 C1792.58,1829.19 1790.47,1831.3 1787.86,1831.3 C1785.25,1831.3 1783.13,1829.19 1783.13,1826.58 C1783.13,1823.97 1785.25,1821.85 1787.86,1821.85 C1790.47,1821.85 1792.58,1823.97 1792.58,1826.58 " vector-effect="non-scaling-stroke"/>
   <path fill-rule="evenodd" d="M1651.01,1729.41 C1651.01,1732.02 1648.89,1734.13 1646.28,1734.13 C1643.68,1734.13 1641.56,1732.02 1641.56,1729.41 C1641.56,1726.8 1643.68,1724.68 1646.28,1724.68 C1648.89,1724.68 1651.01,1726.8 1651.01,1729.41 " vector-effect="non-scaling-stroke"/>
   <path fill-rule="evenodd" d="M1664.49,1917.46 C1664.49,1920.07 1662.37,1922.18 1659.76,1922.18 C1657.15,1922.18 1655.04,1920.07 1655.04,1917.46 C1655.04,1914.85 1657.15,1912.74 1659.76,1912.74 C1662.37,1912.74 1664.49,1914.85 1664.49,1917.46 " vector-effect="non-scaling-stroke"/>
   <path fill-rule="evenodd" d="M1706.24,1963.05 C1706.24,1965.66 1704.13,1967.78 1701.52,1967.78 C1698.91,1967.78 1696.79,1965.66 1696.79,1963.05 C1696.79,1960.44 1698.91,1958.33 1701.52,1958.33 C1704.13,1958.33 1706.24,1960.44 1706.24,1963.05 " vector-effect="non-scaling-stroke"/>
   <path fill-rule="evenodd" d="M2186.3,1705.55 C2186.3,1708.16 2184.19,1710.28 2181.58,1710.28 C2178.97,1710.28 2176.85,1708.16 2176.85,1705.55 C2176.85,1702.94 2178.97,1700.83 2181.58,1700.83 C2184.19,1700.83 2186.3,1702.94 2186.3,1705.55 " vector-effect="non-scaling-stroke"/>
   <path fill-rule="evenodd" d="M1815.52,1719.3 C1815.52,1721.91 1813.4,1724.03 1810.79,1724.03 C1808.18,1724.03 1806.07,1721.91 1806.07,1719.3 C1806.07,1716.69 1808.18,1714.58 1810.79,1714.58 C1813.4,1714.58 1815.52,1716.69 1815.52,1719.3 " vector-effect="non-scaling-stroke"/>
   <path fill-rule="evenodd" d="M1589.48,1430.43 C1589.48,1433.04 1587.36,1435.15 1584.75,1435.15 C1582.15,1435.15 1580.03,1433.04 1580.03,1430.43 C1580.03,1427.82 1582.15,1425.7 1584.75,1425.7 C1587.36,1425.7 1589.48,1427.82 1589.48,1430.43 " vector-effect="non-scaling-stroke"/>
   <path fill-rule="evenodd" d="M2082.06,1707.76 C2082.06,1710.37 2079.95,1712.49 2077.34,1712.49 C2074.73,1712.49 2072.61,1710.37 2072.61,1707.76 C2072.61,1705.15 2074.73,1703.04 2077.34,1703.04 C2079.95,1703.04 2082.06,1705.15 2082.06,1707.76 " vector-effect="non-scaling-stroke"/>
   <path fill-rule="evenodd" d="M1609.27,1417.47 C1609.27,1420.08 1607.16,1422.19 1604.55,1422.19 C1601.94,1422.19 1599.82,1420.08 1599.82,1417.47 C1599.82,1414.86 1601.94,1412.74 1604.55,1412.74 C1607.16,1412.74 1609.27,1414.86 1609.27,1417.47 " vector-effect="non-scaling-stroke"/>
   <path fill-rule="evenodd" d="M1786.11,1079.82 C1786.11,1082.43 1783.99,1084.54 1781.38,1084.54 C1778.77,1084.54 1776.66,1082.43 1776.66,1079.82 C1776.66,1077.21 1778.77,1075.09 1781.38,1075.09 C1783.99,1075.09 1786.11,1077.21 1786.11,1079.82 " vector-effect="non-scaling-stroke"/>
   <path fill-rule="evenodd" d="M1587.99,2054.92 C1587.99,2057.53 1585.87,2059.64 1583.26,2059.64 C1580.66,2059.64 1578.54,2057.53 1578.54,2054.92 C1578.54,2052.31 1580.66,2050.19 1583.26,2050.19 C1585.87,2050.19 1587.99,2052.31 1587.99,2054.92 " vector-effect="non-scaling-stroke"/>
   <path fill-rule="evenodd" d="M1873.42,1734.24 C1873.42,1736.85 1871.31,1738.96 1868.7,1738.96 C1866.09,1738.96 1863.98,1736.85 1863.98,1734.24 C1863.98,1731.63 1866.09,1729.51 1868.7,1729.51 C1871.31,1729.51 1873.42,1731.63 1873.42,1734.24 " vector-effect="non-scaling-stroke"/>
   <path fill-rule="evenodd" d="M2462.07,630.254 C2462.07,632.863 2459.96,634.979 2457.35,634.979 C2454.74,634.979 2452.62,632.863 2452.62,630.254 C2452.62,627.645 2454.74,625.53 2457.35,625.53 C2459.96,625.53 2462.07,627.645 2462.07,630.254 " vector-effect="non-scaling-stroke"/>
   <path fill-rule="evenodd" d="M2410.23,732.501 C2410.23,735.111 2408.12,737.226 2405.51,737.226 C2402.9,737.226 2400.79,735.111 2400.79,732.501 C2400.79,729.892 2402.9,727.777 2405.51,727.777 C2408.12,727.777 2410.23,729.892 2410.23,732.501 " vector-effect="non-scaling-stroke"/>
   <path fill-rule="evenodd" d="M1803.29,1139.42 C1803.29,1142.03 1801.18,1144.15 1798.57,1144.15 C1795.96,1144.15 1793.84,1142.03 1793.84,1139.42 C1793.84,1136.81 1795.96,1134.7 1798.57,1134.7 C1801.18,1134.7 1803.29,1136.81 1803.29,1139.42 " vector-effect="non-scaling-stroke"/>
   <path fill-rule="evenodd" d="M1632.72,2274.18 C1632.72,2276.79 1630.61,2278.9 1628,2278.9 C1625.39,2278.9 1623.27,2276.79 1623.27,2274.18 C1623.27,2271.57 1625.39,2269.46 1628,2269.46 C1630.61,2269.46 1632.72,2271.57 1632.72,2274.18 " vector-effect="non-scaling-stroke"/>
   <path fill-rule="evenodd" d="M2182.5,636.489 C2182.5,639.098 2180.38,641.214 2177.77,641.214 C2175.16,641.214 2173.05,639.098 2173.05,636.489 C2173.05,633.88 2175.16,631.765 2177.77,631.765 C2180.38,631.765 2182.5,633.88 2182.5,636.489 " vector-effect="non-scaling-stroke"/>
   <path fill-rule="evenodd" d="M2007.38,1635.26 C2007.38,1637.87 2005.27,1639.98 2002.66,1639.98 C2000.05,1639.98 1997.93,1637.87 1997.93,1635.26 C1997.93,1632.65 2000.05,1630.53 2002.66,1630.53 C2005.27,1630.53 2007.38,1632.65 2007.38,1635.26 " vector-effect="non-scaling-stroke"/>
   <path fill-rule="evenodd" d="M1643.56,1522.1 C1643.56,1524.71 1641.44,1526.82 1638.83,1526.82 C1636.22,1526.82 1634.11,1524.71 1634.11,1522.1 C1634.11,1519.49 1636.22,1517.38 1638.83,1517.38 C1641.44,1517.38 1643.56,1519.49 1643.56,1522.1 " vector-effect="non-scaling-stroke"/>
   <path fill-rule="evenodd" d="M1874.58,1063.53 C1874.58,1066.14 1872.46,1068.25 1869.85,1068.25 C1867.24,1068.25 1865.13,1066.14 1865.13,1063.53 C1865.13,1060.92 1867.24,1058.8 1869.85,1058.8 C1872.46,1058.8 1874.58,1060.92 1874.58,1063.53 " vector-effect="non-scaling-stroke"/>
   <path fill-rule="evenodd" d="M1351.38,1509.37 C1351.38,1511.98 1349.26,1514.09 1346.65,1514.09 C1344.04,1514.09 1341.93,1511.98 1341.93,1509.37 C1341.93,1506.76 1344.04,1504.64 1346.65,1504.64 C1349.26,1504.64 1351.38,1506.76 1351.38,1509.37 " vector-effect="non-scaling-stroke"/>
   <path fill-rule="evenodd" d="M2109.25,1811.72 C2109.25,1814.33 2107.13,1816.44 2104.52,1816.44 C2101.91,1816.44 2099.8,1814.33 2099.8,1811.72 C2099.8,1809.11 2101.91,1806.99 2104.52,1806.99 C2107.13,1806.99 2109.25,1809.11 2109.25,1811.72 " vector-effect="non-scaling-stroke"/>
   <path fill-rule="evenodd" d="M1648.32,1969.32 C1648.32,1971.93 1646.2,1974.05 1643.59,1974.05 C1640.99,1974.05 1638.87,1971.93 1638.87,1969.32 C1638.87,1966.72 1640.99,1964.6 1643.59,1964.6 C1646.2,1964.6 1648.32,1966.72 1648.32,1969.32 " vector-effect="non-scaling-stroke"/>
   <path fill-rule="evenodd" d="M1908.19,1252.24 C1908.19,1254.85 1906.07,1256.97 1903.47,1256.97 C1900.86,1256.97 1898.74,1254.85 1898.74,1252.24 C1898.74,1249.63 1900.86,1247.52 1903.47,1247.52 C1906.07,1247.52 1908.19,1249.63 1908.19,1252.24 " vector-effect="non-scaling-stroke"/>
   <path fill-rule="evenodd" d="M2275.03,962.314 C2275.03,964.923 2272.91,967.038 2270.3,967.038 C2267.69,967.038 2265.58,964.923 2265.58,962.314 C2265.58,959.705 2267.69,957.589 2270.3,957.589 C2272.91,957.589 2275.03,959.705 2275.03,962.314 " vector-effect="non-scaling-stroke"/>
   <path fill-rule="evenodd" d="M2356.58,1045.88 C2356.58,1048.49 2354.46,1050.6 2351.85,1050.6 C2349.25,1050.6 2347.13,1048.49 2347.13,1045.88 C2347.13,1043.27 2349.25,1041.15 2351.85,1041.15 C2354.46,1041.15 2356.58,1043.27 2356.58,1045.88 " vector-effect="non-scaling-stroke"/>
   <path fill-rule="evenodd" d="M1650.64,2057.16 C1650.64,2059.77 1648.53,2061.88 1645.92,2061.88 C1643.31,2061.88 1641.19,2059.77 1641.19,2057.16 C1641.19,2054.55 1643.31,2052.43 1645.92,2052.43 C1648.53,2052.43 1650.64,2054.55 1650.64,2057.16 " vector-effect="non-scaling-stroke"/>
   <path fill-rule="evenodd" d="M1478,1005.71 C1478,1008.32 1475.89,1010.43 1473.28,1010.43 C1470.67,1010.43 1468.56,1008.32 1468.56,1005.71 C1468.56,1003.1 1470.67,1000.98 1473.28,1000.98 C1475.89,1000.98 1478,1003.1 1478,1005.71 " vector-effect="non-scaling-stroke"/>
   <path fill-rule="evenodd" d="M1891.88,1454.32 C1891.88,1456.93 1889.76,1459.05 1887.15,1459.05 C1884.54,1459.05 1882.43,1456.93 1882.43,1454.32 C1882.43,1451.71 1884.54,1449.6 1887.15,1449.6 C1889.76,1449.6 1891.88,1451.71 1891.88,1454.32 " vector-effect="non-scaling-stroke"/>
   <path fill-rule="evenodd" d="M2062.27,1694.69 C2062.27,1697.3 2060.16,1699.41 2057.55,1699.41 C2054.94,1699.41 2052.82,1697.3 2052.82,1694.69 C2052.82,1692.08 2054.94,1689.96 2057.55,1689.96 C2060.16,1689.96 2062.27,1692.08 2062.27,1694.69 " vector-effect="non-scaling-stroke"/>
   <path fill-rule="evenodd" d="M2065.57,1153.75 C2065.57,1156.36 2063.46,1158.47 2060.85,1158.47 C2058.24,1158.47 2056.12,1156.36 2056.12,1153.75 C2056.12,1151.14 2058.24,1149.02 2060.85,1149.02 C2063.46,1149.02 2065.57,1151.14 2065.57,1153.75 " vector-effect="non-scaling-stroke"/>
   <path fill-rule="evenodd" d="M1494.93,1019.9 C1494.93,1022.51 1492.81,1024.63 1490.2,1024.63 C1487.59,1024.63 1485.48,1022.51 1485.48,1019.9 C1485.48,1017.3 1487.59,1015.18 1490.2,1015.18 C1492.81,1015.18 1494.93,1017.3 1494.93,1019.9 " vector-effect="non-scaling-stroke"/>
   <path fill-rule="evenodd" d="M1785.87,1009.88 C1785.87,1012.49 1783.76,1014.61 1781.15,1014.61 C1778.54,1014.61 1776.42,1012.49 1776.42,1009.88 C1776.42,1007.28 1778.54,1005.16 1781.15,1005.16 C1783.76,1005.16 1785.87,1007.28 1785.87,1009.88 " vector-effect="non-scaling-stroke"/>
   <path fill-rule="evenodd" d="M2372.7,1104.74 C2372.7,1107.35 2370.58,1109.47 2367.97,1109.47 C2365.36,1109.47 2363.25,1107.35 2363.25,1104.74 C2363.25,1102.14 2365.36,1100.02 2367.97,1100.02 C2370.58,1100.02 2372.7,1102.14 2372.7,1104.74 " vector-effect="non-scaling-stroke"/>
   <path fill-rule="evenodd" d="M1476.19,1004.87 C1476.19,1007.48 1474.08,1009.59 1471.47,1009.59 C1468.86,1009.59 1466.74,1007.48 1466.74,1004.87 C1466.74,1002.26 1468.86,1000.14 1471.47,1000.14 C1474.08,1000.14 1476.19,1002.26 1476.19,1004.87 " vector-effect="non-scaling-stroke"/>
   <path fill-rule="evenodd" d="M1963.3,625.22 C1963.3,627.829 1961.18,629.944 1958.57,629.944 C1955.96,629.944 1953.85,627.829 1953.85,625.22 C1953.85,622.611 1955.96,620.496 1958.57,620.496 C1961.18,620.496 1963.3,622.611 1963.3,625.22 " vector-effect="non-scaling-stroke"/>
   <path fill-rule="evenodd" d="M1561.91,1538.47 C1561.91,1541.08 1559.8,1543.19 1557.19,1543.19 C1554.58,1543.19 1552.47,1541.08 1552.47,1538.47 C1552.47,1535.86 1554.58,1533.74 1557.19,1533.74 C1559.8,1533.74 1561.91,1535.86 1561.91,1538.47 " vector-effect="non-scaling-stroke"/>
   <path fill-rule="evenodd" d="M1936.31,1773.22 C1936.31,1775.83 1934.19,1777.95 1931.58,1777.95 C1928.97,1777.95 1926.86,1775.83 1926.86,1773.22 C1926.86,1770.61 1928.97,1768.5 1931.58,1768.5 C1934.19,1768.5 1936.31,1770.61 1936.31,1773.22 " vector-effect="non-scaling-stroke"/>
   <path fill-rule="evenodd" d="M1933.02,1773.8 C1933.02,1776.41 1930.91,1778.52 1928.3,1778.52 C1925.69,1778.52 1923.57,1776.41 1923.57,1773.8 C1923.57,1771.19 1925.69,1769.07 1928.3,1769.07 C1930.91,1769.07 1933.02,1771.19 1933.02,1773.8 " vector-effect="non-scaling-stroke"/>
   <path fill-rule="evenodd" d="M1972.21,894.402 C1972.21,897.011 1970.09,899.126 1967.48,899.126 C1964.87,899.126 1962.76,897.011 1962.76,894.402 C1962.76,891.792 1964.87,889.677 1967.48,889.677 C1970.09,889.677 1972.21,891.792 1972.21,894.402 " vector-effect="non-scaling-stroke"/>
   <path fill-rule="evenodd" d="M1688.09,1523.98 C1688.09,1526.59 1685.97,1528.71 1683.36,1528.71 C1680.75,1528.71 1678.64,1526.59 1678.64,1523.98 C1678.64,1521.37 1680.75,1519.26 1683.36,1519.26 C1685.97,1519.26 1688.09,1521.37 1688.09,1523.98 " vector-effect="non-scaling-stroke"/>
   <path fill-rule="evenodd" d="M1418.1,1620.76 C1418.1,1623.37 1415.98,1625.49 1413.38,1625.49 C1410.77,1625.49 1408.65,1623.37 1408.65,1620.76 C1408.65,1618.15 1410.77,1616.04 1413.38,1616.04 C1415.98,1616.04 1418.1,1618.15 1418.1,1620.76 " vector-effect="non-scaling-stroke"/>
   <path fill-rule="evenodd" d="M2157.01,1540.52 C2157.01,1543.13 2154.89,1545.25 2152.28,1545.25 C2149.67,1545.25 2147.56,1543.13 2147.56,1540.52 C2147.56,1537.92 2149.67,1535.8 2152.28,1535.8 C2154.89,1535.8 2157.01,1537.92 2157.01,1540.52 " vector-effect="non-scaling-stroke"/>
   <path fill-rule="evenodd" d="M2202.86,1084.24 C2202.86,1086.85 2200.74,1088.96 2198.13,1088.96 C2195.52,1088.96 2193.41,1086.85 2193.41,1084.24 C2193.41,1081.63 2195.52,1079.52 2198.13,1079.52 C2200.74,1079.52 2202.86,1081.63 2202.86,1084.24 " vector-effect="non-scaling-stroke"/>
   <path fill-rule="evenodd" d="M1700.6,1946.81 C1700.6,1949.42 1698.49,1951.53 1695.88,1951.53 C1693.27,1951.53 1691.16,1949.42 1691.16,1946.81 C1691.16,1944.2 1693.27,1942.08 1695.88,1942.08 C1698.49,1942.08 1700.6,1944.2 1700.6,1946.81 " vector-effect="non-scaling-stroke"/>
   <path fill-rule="evenodd" d="M2306.81,673.585 C2306.81,676.194 2304.7,678.309 2302.09,678.309 C2299.48,678.309 2297.37,676.194 2297.37,673.585 C2297.37,670.976 2299.48,668.861 2302.09,668.861 C2304.7,668.861 2306.81,670.976 2306.81,673.585 " vector-effect="non-scaling-stroke"/>
   <path fill-rule="evenodd" d="M1982.29,1803.16 C1982.29,1805.77 1980.18,1807.88 1977.57,1807.88 C1974.96,1807.88 1972.84,1805.77 1972.84,1803.16 C1972.84,1800.55 1974.96,1798.44 1977.57,1798.44 C1980.18,1798.44 1982.29,1800.55 1982.29,1803.16 " vector-effect="non-scaling-stroke"/>
   <path fill-rule="evenodd" d="M2033.86,2028.22 C2033.86,2030.83 2031.75,2032.94 2029.14,2032.94 C2026.53,2032.94 2024.42,2030.83 2024.42,2028.22 C2024.42,2025.61 2026.53,2023.49 2029.14,2023.49 C2031.75,2023.49 2033.86,2025.61 2033.86,2028.22 " vector-effect="non-scaling-stroke"/>
   <path fill-rule="evenodd" d="M1504.3,1642.17 C1504.3,1644.78 1502.19,1646.89 1499.58,1646.89 C1496.97,1646.89 1494.85,1644.78 1494.85,1642.17 C1494.85,1639.56 1496.97,1637.45 1499.58,1637.45 C1502.19,1637.45 1504.3,1639.56 1504.3,1642.17 " vector-effect="non-scaling-stroke"/>
   <path fill-rule="evenodd" d="M2080.14,1633.02 C2080.14,1635.63 2078.02,1637.74 2075.41,1637.74 C2072.8,1637.74 2070.69,1635.63 2070.69,1633.02 C2070.69,1630.41 2072.8,1628.29 2075.41,1628.29 C2078.02,1628.29 2080.14,1630.41 2080.14,1633.02 " vector-effect="non-scaling-stroke"/>
   <path fill-rule="evenodd" d="M1897.44,963.168 C1897.44,965.777 1895.33,967.892 1892.72,967.892 C1890.11,967.892 1887.99,965.777 1887.99,963.168 C1887.99,960.559 1890.11,958.444 1892.72,958.444 C1895.33,958.444 1897.44,960.559 1897.44,963.168 " vector-effect="non-scaling-stroke"/>
   <path fill-rule="evenodd" d="M1600.26,1479.02 C1600.26,1481.63 1598.14,1483.74 1595.53,1483.74 C1592.92,1483.74 1590.81,1481.63 1590.81,1479.02 C1590.81,1476.41 1592.92,1474.29 1595.53,1474.29 C1598.14,1474.29 1600.26,1476.41 1600.26,1479.02 " vector-effect="non-scaling-stroke"/>
   <path fill-rule="evenodd" d="M2013.26,1555.7 C2013.26,1558.31 2011.14,1560.43 2008.53,1560.43 C2005.92,1560.43 2003.81,1558.31 2003.81,1555.7 C2003.81,1553.09 2005.92,1550.98 2008.53,1550.98 C2011.14,1550.98 2013.26,1553.09 2013.26,1555.7 " vector-effect="non-scaling-stroke"/>
   <path fill-rule="evenodd" d="M1598.31,1410.47 C1598.31,1413.08 1596.2,1415.19 1593.59,1415.19 C1590.98,1415.19 1588.86,1413.08 1588.86,1410.47 C1588.86,1407.86 1590.98,1405.74 1593.59,1405.74 C1596.2,1405.74 1598.31,1407.86 1598.31,1410.47 " vector-effect="non-scaling-stroke"/>
   <path fill-rule="evenodd" d="M1604.93,1776.28 C1604.93,1778.89 1602.81,1781.01 1600.2,1781.01 C1597.59,1781.01 1595.48,1778.89 1595.48,1776.28 C1595.48,1773.67 1597.59,1771.56 1600.2,1771.56 C1602.81,1771.56 1604.93,1773.67 1604.93,1776.28 " vector-effect="non-scaling-stroke"/>
   <path fill-rule="evenodd" d="M2102.82,1243.15 C2102.82,1245.75 2100.7,1247.87 2098.1,1247.87 C2095.49,1247.87 2093.37,1245.75 2093.37,1243.15 C2093.37,1240.54 2095.49,1238.42 2098.1,1238.42 C2100.7,1238.42 2102.82,1240.54 2102.82,1243.15 " vector-effect="non-scaling-stroke"/>
   <path fill-rule="evenodd" d="M2063.66,743.406 C2063.66,746.015 2061.55,748.131 2058.94,748.131 C2056.33,748.131 2054.22,746.015 2054.22,743.406 C2054.22,740.797 2056.33,738.682 2058.94,738.682 C2061.55,738.682 2063.66,740.797 2063.66,743.406 " vector-effect="non-scaling-stroke"/>
   <path fill-rule="evenodd" d="M1527.92,1754.88 C1527.92,1757.49 1525.8,1759.6 1523.19,1759.6 C1520.59,1759.6 1518.47,1757.49 1518.47,1754.88 C1518.47,1752.27 1520.59,1750.15 1523.19,1750.15 C1525.8,1750.15 1527.92,1752.27 1527.92,1754.88 " vector-effect="non-scaling-stroke"/>
   <path fill-rule="evenodd" d="M1726.7,1687.23 C1726.7,1689.84 1724.58,1691.95 1721.97,1691.95 C1719.36,1691.95 1717.25,1689.84 1717.25,1687.23 C1717.25,1684.62 1719.36,1682.5 1721.97,1682.5 C1724.58,1682.5 1726.7,1684.62 1726.7,1687.23 " vector-effect="non-scaling-stroke"/>
   <path fill-rule="evenodd" d="M1728.45,1447.91 C1728.45,1450.52 1726.33,1452.64 1723.72,1452.64 C1721.11,1452.64 1719,1450.52 1719,1447.91 C1719,1445.3 1721.11,1443.19 1723.72,1443.19 C1726.33,1443.19 1728.45,1445.3 1728.45,1447.91 " vector-effect="non-scaling-stroke"/>
   <path fill-rule="evenodd" d="M1776.15,791.528 C1776.15,794.137 1774.04,796.253 1771.43,796.253 C1768.82,796.253 1766.71,794.137 1766.71,791.528 C1766.71,788.919 1768.82,786.804 1771.43,786.804 C1774.04,786.804 1776.15,788.919 1776.15,791.528 " vector-effect="non-scaling-stroke"/>
   <path fill-rule="evenodd" d="M2251.96,849.484 C2251.96,852.093 2249.84,854.208 2247.23,854.208 C2244.62,854.208 2242.51,852.093 2242.51,849.484 C2242.51,846.874 2244.62,844.759 2247.23,844.759 C2249.84,844.759 2251.96,846.874 2251.96,849.484 " vector-effect="non-scaling-stroke"/>
   <path fill-rule="evenodd" d="M1886.51,1671.68 C1886.51,1674.29 1884.39,1676.41 1881.78,1676.41 C1879.18,1676.41 1877.06,1674.29 1877.06,1671.68 C1877.06,1669.07 1879.18,1666.96 1881.78,1666.96 C1884.39,1666.96 1886.51,1669.07 1886.51,1671.68 " vector-effect="non-scaling-stroke"/>
   <path fill-rule="evenodd" d="M2023.04,871.169 C2023.04,873.778 2020.93,875.894 2018.32,875.894 C2015.71,875.894 2013.59,873.778 2013.59,871.169 C2013.59,868.56 2015.71,866.445 2018.32,866.445 C2020.93,866.445 2023.04,868.56 2023.04,871.169 " vector-effect="non-scaling-stroke"/>
   <path fill-rule="evenodd" d="M2429.73,718.034 C2429.73,720.643 2427.61,722.758 2425,722.758 C2422.39,722.758 2420.28,720.643 2420.28,718.034 C2420.28,715.425 2422.39,713.309 2425,713.309 C2427.61,713.309 2429.73,715.425 2429.73,718.034 " vector-effect="non-scaling-stroke"/>
   <path fill-rule="evenodd" d="M1688.21,1826.85 C1688.21,1829.46 1686.09,1831.57 1683.49,1831.57 C1680.88,1831.57 1678.76,1829.46 1678.76,1826.85 C1678.76,1824.24 1680.88,1822.13 1683.49,1822.13 C1686.09,1822.13 1688.21,1824.24 1688.21,1826.85 " vector-effect="non-scaling-stroke"/>
   <path fill-rule="evenodd" d="M1452.92,1409.46 C1452.92,1412.07 1450.8,1414.18 1448.19,1414.18 C1445.58,1414.18 1443.47,1412.07 1443.47,1409.46 C1443.47,1406.85 1445.58,1404.73 1448.19,1404.73 C1450.8,1404.73 1452.92,1406.85 1452.92,1409.46 " vector-effect="non-scaling-stroke"/>
   <path fill-rule="evenodd" d="M1940.48,953.963 C1940.48,956.572 1938.36,958.688 1935.76,958.688 C1933.15,958.688 1931.03,956.572 1931.03,953.963 C1931.03,951.354 1933.15,949.239 1935.76,949.239 C1938.36,949.239 1940.48,951.354 1940.48,953.963 " vector-effect="non-scaling-stroke"/>
   <path fill-rule="evenodd" d="M1536.38,1625.33 C1536.38,1627.94 1534.27,1630.06 1531.66,1630.06 C1529.05,1630.06 1526.93,1627.94 1526.93,1625.33 C1526.93,1622.73 1529.05,1620.61 1531.66,1620.61 C1534.27,1620.61 1536.38,1622.73 1536.38,1625.33 " vector-effect="non-scaling-stroke"/>
   <path fill-rule="evenodd" d="M2061.16,2069.52 C2061.16,2072.13 2059.04,2074.25 2056.43,2074.25 C2053.82,2074.25 2051.71,2072.13 2051.71,2069.52 C2051.71,2066.92 2053.82,2064.8 2056.43,2064.8 C2059.04,2064.8 2061.16,2066.92 2061.16,2069.52 " vector-effect="non-scaling-stroke"/>
   <path fill-rule="evenodd" d="M2047.57,1030.07 C2047.57,1032.68 2045.45,1034.8 2042.84,1034.8 C2040.24,1034.8 2038.12,1032.68 2038.12,1030.07 C2038.12,1027.46 2040.24,1025.35 2042.84,1025.35 C2045.45,1025.35 2047.57,1027.46 2047.57,1030.07 " vector-effect="non-scaling-stroke"/>
  </g>
  <g font-family=".AppleSystemUIFont" fill="none" stroke-width="1" font-size="54.1667" font-style="normal" stroke-linejoin="bevel" stroke-opacity="1" font-weight="400" transform="matrix(0.999751,0,0,0.999751,0,0)" stroke="#000000" stroke-linecap="square"/>
  <g font-family=".AppleSystemUIFont" fill="none" stroke-width="1" font-size="54.1667" font-style="normal" stroke-linejoin="bevel" stroke-opacity="1" font-weight="400" transform="matrix(11.8081,0,0,11.8081,0,0)" stroke="#000000" stroke-linecap="square"/>
  <g font-family=".AppleSystemUIFont" fill="none" stroke-width="1" font-size="54.1667" font-style="normal" stroke-linejoin="bevel" stroke-opacity="1" font-weight="400" transform="matrix(11.8081,0,0,11.8081,0,0)" stroke="#000000" stroke-linecap="square"/>
  <g font-family=".AppleSystemUIFont" fill="none" stroke-width="1" font-size="54.1667" font-style="normal" stroke-linejoin="bevel" stroke-opacity="1" font-weight="400" transform="matrix(11.8081,0,0,11.8081,0,0)" stroke="#000000" stroke-linecap="square"/>
  <g font-family=".AppleSystemUIFont" fill="none" stroke-width="1" font-size="54.1667" font-style="normal" stroke-linejoin="bevel" stroke-opacity="1" font-weight="400" transform="matrix(1,0,0,1,0,0)" stroke="#000000" stroke-linecap="square"/>
  <g font-family=".AppleSystemUIFont" fill="none" stroke-width="1" font-size="54.1667" font-style="normal" stroke-linejoin="bevel" stroke-opacity="1" font-weight="400" transform="matrix(11.8081,0,0,11.8081,0,0)" stroke="#000000" stroke-linecap="square"/>
  <g font-family=".AppleSystemUIFont" fill="none" stroke-width="1" font-size="54.1667" font-style="normal" stroke-linejoin="bevel" stroke-opacity="1" font-weight="400" transform="matrix(11.8081,0,0,11.8081,0,0)" stroke="#000000" stroke-linecap="square"/>
  <g font-family=".AppleSystemUIFont" fill="none" stroke-width="1" font-size="54.1667" font-style="normal" stroke-linejoin="bevel" stroke-opacity="1" font-weight="400" transform="matrix(11.8081,0,0,11.8081,0,0)" stroke="#000000" stroke-linecap="square"/>
  <g font-family=".AppleSystemUIFont" fill="none" stroke-width="1" font-size="54.1667" font-style="normal" stroke-linejoin="bevel" stroke-opacity="1" font-weight="400" transform="matrix(11.8081,0,0,11.8081,0,0)" stroke="#000000" stroke-linecap="square"/>
  <g font-family=".AppleSystemUIFont" fill="none" stroke-width="1" font-size="54.1667" font-style="normal" stroke-linejoin="bevel" stroke-opacity="1" font-weight="400" transform="matrix(1,0,0,1,0,0)" stroke="#000000" stroke-linecap="square"/>
 </g>
 <metadata>
  <rdf:RDF xmlns:rdfs="http://www.w3.org/2000/01/rdf-schema#" xmlns:rdf="http://www.w3.org/1999/02/22-rdf-syntax-ns#" xmlns:dc="http://purl.org/dc/elements/1.1/">
   <rdf:Description dc:description="" dc:title="" dc:date="2021-05-09T15:36:19" dc:identifier="" dc:format="image/svg+xml">
    <dc:creator>
     <rdf:Bag>
      <rdf:li>Ana Pinilla</rdf:li>
     </rdf:Bag>
    </dc:creator>
    <dc:publisher>
     <rdf:Bag>
      <rdf:li>QGIS 3.16.4-Hannover</rdf:li>
     </rdf:Bag>
    </dc:publisher>
    <dc:subject>
     <rdf:Bag/>
    </dc:subject>
   </rdf:Description>
   <cc:Work rdf:about="">
    <dc:format>image/svg+xml</dc:format>
    <dc:title></dc:title>
    <dc:date>2021-05-09T15:36:19</dc:date>
    <dc:identifier></dc:identifier>
    <dc:description></dc:description>
    <dc:creator>
     <cc:Agent>
      <dc:title>Ana Pinilla</dc:title>
     </cc:Agent>
    </dc:creator>
    <dc:publisher>
     <cc:Agent>
      <dc:title>QGIS 3.16.4-Hannover</dc:title>
     </cc:Agent>
    </dc:publisher>
   </cc:Work>
  </rdf:RDF>
 </metadata>
</svg>
