<?xml version='1.0' encoding='UTF-8' standalone='no'?>
<svg viewBox="0 0 3507 2480" baseProfile="tiny" xmlns:cc="http://creativecommons.org/ns#" height="209.973mm" width="296.926mm" xmlns="http://www.w3.org/2000/svg" xmlns:xlink="http://www.w3.org/1999/xlink" version="1.2">
 <defs/>
 <g fill-rule="evenodd" fill="none" stroke-width="1" stroke-linejoin="bevel" stroke="black" stroke-linecap="square">
  <g font-family=".AppleSystemUIFont" fill="none" stroke-width="1" font-size="54.1667" font-style="normal" stroke-linejoin="bevel" stroke-opacity="1" font-weight="400" transform="matrix(1,0,0,1,0,0)" stroke="#000000" stroke-linecap="square"/>
  <g font-family=".AppleSystemUIFont" fill="none" stroke-width="1" font-size="54.1667" font-style="normal" stroke-linejoin="bevel" stroke-opacity="1" font-weight="400" transform="matrix(1,0,0,1,0,0)" stroke="#000000" stroke-linecap="square"/>
  <g font-family=".AppleSystemUIFont" fill="none" stroke-width="1" font-size="54.1667" font-style="normal" stroke-linejoin="bevel" stroke-opacity="1" font-weight="400" transform="matrix(11.8081,0,0,11.8081,0,0)" stroke="#000000" stroke-linecap="square"/>
  <g font-family=".AppleSystemUIFont" fill="none" stroke-width="1" font-size="54.1667" font-style="normal" stroke-linejoin="bevel" stroke-opacity="1" font-weight="400" transform="matrix(0.999751,0,0,0.999751,0,0)" stroke="#000000" stroke-linecap="square"/>
  <g font-family=".AppleSystemUIFont" fill="#ffffff" fill-opacity="1" font-size="54.1667" font-style="normal" font-weight="400" transform="matrix(0.999751,0,0,0.999751,0,0)" stroke="none">
   <path fill-rule="evenodd" d="M-2,-2 L3510,-2 L3510,2483 L-2,2483 L-2,-2" vector-effect="none"/>
  </g>
  <g font-family=".AppleSystemUIFont" fill="none" stroke-width="1" font-size="54.1667" font-style="normal" stroke-linejoin="bevel" stroke-opacity="1" font-weight="400" transform="matrix(0.999751,0,0,0.999751,0,0)" stroke="#000000" stroke-linecap="square"/>
  <g font-family=".AppleSystemUIFont" fill="none" stroke-width="1" font-size="54.1667" font-style="normal" stroke-linejoin="bevel" stroke-opacity="1" font-weight="400" transform="matrix(11.8081,0,0,11.8081,0,0)" stroke="#000000" stroke-linecap="square"/>
  <g font-family=".AppleSystemUIFont" fill="none" stroke-width="1" font-size="54.1667" font-style="normal" stroke-linejoin="bevel" stroke-opacity="1" font-weight="400" transform="matrix(11.8081,0,0,11.8081,0,0)" stroke="#000000" stroke-linecap="square"/>
  <g font-family=".AppleSystemUIFont" fill="none" stroke-width="1" font-size="54.1667" font-style="normal" stroke-linejoin="bevel" stroke-opacity="1" font-weight="400" transform="matrix(11.8081,0,0,11.8081,0,0)" stroke="#000000" stroke-linecap="square"/>
  <g font-family=".AppleSystemUIFont" fill="none" stroke-width="1" font-size="54.1667" font-style="normal" stroke-linejoin="bevel" stroke-opacity="1" font-weight="400" transform="matrix(11.8081,0,0,11.8081,0,0)" stroke="#000000" stroke-linecap="square"/>
  <g font-family=".AppleSystemUIFont" fill="none" stroke-width="1" font-size="54.1667" font-style="normal" stroke-linejoin="bevel" stroke-opacity="1" font-weight="400" transform="matrix(11.8081,0,0,11.8081,0,0)" stroke="#000000" stroke-linecap="square"/>
  <g font-family=".AppleSystemUIFont" fill="#ffffff" fill-opacity="1" font-size="54.1667" font-style="normal" font-weight="400" transform="matrix(11.8081,0,0,11.8081,0,0)" stroke="none">
   <path fill-rule="evenodd" d="M0,0 L297,0 L297,210 L0,210 L0,0" vector-effect="none"/>
  </g>
  <g font-family=".AppleSystemUIFont" fill="none" stroke-width="1" font-size="54.1667" font-style="normal" stroke-linejoin="bevel" stroke-opacity="1" font-weight="400" transform="matrix(11.8081,0,0,11.8081,0,0)" stroke="#000000" stroke-linecap="square"/>
  <g font-family=".AppleSystemUIFont" fill="none" stroke-width="1" font-size="54.1667" font-style="normal" stroke-linejoin="bevel" stroke-opacity="1" font-weight="400" transform="matrix(11.8081,0,0,11.8081,0,0)" stroke="#000000" stroke-linecap="square"/>
  <g font-family=".AppleSystemUIFont" fill="#000000" fill-opacity="0" font-size="54.1667" font-style="normal" font-weight="400" transform="matrix(0.999751,0,0,0.999751,0,0)" stroke="none">
   <rect x="0" height="2480" y="0" width="3508"/>
  </g>
  <g font-family=".AppleSystemUIFont" fill="none" stroke-width="1" font-size="54.1667" font-style="normal" stroke-linejoin="bevel" stroke-opacity="1" font-weight="400" transform="matrix(0.999751,0,0,0.999751,0,0)" stroke="#000000" stroke-linecap="square"/>
  <g font-family=".AppleSystemUIFont" fill="#e45e5e" fill-opacity="1" stroke-width="1" font-size="54.1667" font-style="normal" stroke-linejoin="bevel" stroke-opacity="0" font-weight="400" transform="matrix(0.999751,0,0,0.999751,0,0)" stroke="#232323" stroke-linecap="square">
   <path fill-rule="evenodd" d="M2493.05,691.954 C2493.05,694.563 2490.94,696.678 2488.33,696.678 C2485.72,696.678 2483.6,694.563 2483.6,691.954 C2483.6,689.345 2485.72,687.229 2488.33,687.229 C2490.94,687.229 2493.05,689.345 2493.05,691.954 " vector-effect="non-scaling-stroke"/>
   <path fill-rule="evenodd" d="M1582.57,1388.68 C1582.57,1391.29 1580.45,1393.4 1577.84,1393.4 C1575.23,1393.4 1573.12,1391.29 1573.12,1388.68 C1573.12,1386.07 1575.23,1383.95 1577.84,1383.95 C1580.45,1383.95 1582.57,1386.07 1582.57,1388.68 " vector-effect="non-scaling-stroke"/>
   <path fill-rule="evenodd" d="M1556.18,1422.2 C1556.18,1424.81 1554.06,1426.93 1551.45,1426.93 C1548.84,1426.93 1546.73,1424.81 1546.73,1422.2 C1546.73,1419.59 1548.84,1417.48 1551.45,1417.48 C1554.06,1417.48 1556.18,1419.59 1556.18,1422.2 " vector-effect="non-scaling-stroke"/>
   <path fill-rule="evenodd" d="M1589.48,1430.43 C1589.48,1433.04 1587.36,1435.15 1584.75,1435.15 C1582.15,1435.15 1580.03,1433.04 1580.03,1430.43 C1580.03,1427.82 1582.15,1425.7 1584.75,1425.7 C1587.36,1425.7 1589.48,1427.82 1589.48,1430.43 " vector-effect="non-scaling-stroke"/>
   <path fill-rule="evenodd" d="M2257,979.767 C2257,982.377 2254.88,984.492 2252.27,984.492 C2249.66,984.492 2247.55,982.377 2247.55,979.767 C2247.55,977.158 2249.66,975.043 2252.27,975.043 C2254.88,975.043 2257,977.158 2257,979.767 " vector-effect="non-scaling-stroke"/>
   <path fill-rule="evenodd" d="M2237.81,1067.15 C2237.81,1069.76 2235.69,1071.87 2233.08,1071.87 C2230.48,1071.87 2228.36,1069.76 2228.36,1067.15 C2228.36,1064.54 2230.48,1062.42 2233.08,1062.42 C2235.69,1062.42 2237.81,1064.54 2237.81,1067.15 " vector-effect="non-scaling-stroke"/>
   <path fill-rule="evenodd" d="M1831.48,2167.71 C1831.48,2170.32 1829.37,2172.44 1826.76,2172.44 C1824.15,2172.44 1822.04,2170.32 1822.04,2167.71 C1822.04,2165.11 1824.15,2162.99 1826.76,2162.99 C1829.37,2162.99 1831.48,2165.11 1831.48,2167.71 " vector-effect="non-scaling-stroke"/>
   <path fill-rule="evenodd" d="M1803.39,1451.86 C1803.39,1454.47 1801.27,1456.58 1798.66,1456.58 C1796.05,1456.58 1793.94,1454.47 1793.94,1451.86 C1793.94,1449.25 1796.05,1447.13 1798.66,1447.13 C1801.27,1447.13 1803.39,1449.25 1803.39,1451.86 " vector-effect="non-scaling-stroke"/>
   <path fill-rule="evenodd" d="M1700.57,1437.33 C1700.57,1439.94 1698.45,1442.06 1695.84,1442.06 C1693.24,1442.06 1691.12,1439.94 1691.12,1437.33 C1691.12,1434.72 1693.24,1432.61 1695.84,1432.61 C1698.45,1432.61 1700.57,1434.72 1700.57,1437.33 " vector-effect="non-scaling-stroke"/>
   <path fill-rule="evenodd" d="M1781.75,1505.63 C1781.75,1508.24 1779.64,1510.36 1777.03,1510.36 C1774.42,1510.36 1772.3,1508.24 1772.3,1505.63 C1772.3,1503.02 1774.42,1500.91 1777.03,1500.91 C1779.64,1500.91 1781.75,1503.02 1781.75,1505.63 " vector-effect="non-scaling-stroke"/>
   <path fill-rule="evenodd" d="M1835.11,935.303 C1835.11,937.913 1833,940.028 1830.39,940.028 C1827.78,940.028 1825.66,937.913 1825.66,935.303 C1825.66,932.694 1827.78,930.579 1830.39,930.579 C1833,930.579 1835.11,932.694 1835.11,935.303 " vector-effect="non-scaling-stroke"/>
   <path fill-rule="evenodd" d="M2182.82,1351.67 C2182.82,1354.28 2180.7,1356.39 2178.09,1356.39 C2175.48,1356.39 2173.37,1354.28 2173.37,1351.67 C2173.37,1349.06 2175.48,1346.94 2178.09,1346.94 C2180.7,1346.94 2182.82,1349.06 2182.82,1351.67 " vector-effect="non-scaling-stroke"/>
   <path fill-rule="evenodd" d="M1777.9,1858.98 C1777.9,1861.59 1775.78,1863.7 1773.17,1863.7 C1770.56,1863.7 1768.45,1861.59 1768.45,1858.98 C1768.45,1856.37 1770.56,1854.26 1773.17,1854.26 C1775.78,1854.26 1777.9,1856.37 1777.9,1858.98 " vector-effect="non-scaling-stroke"/>
   <path fill-rule="evenodd" d="M1713.07,1248.71 C1713.07,1251.32 1710.96,1253.44 1708.35,1253.44 C1705.74,1253.44 1703.62,1251.32 1703.62,1248.71 C1703.62,1246.1 1705.74,1243.99 1708.35,1243.99 C1710.96,1243.99 1713.07,1246.1 1713.07,1248.71 " vector-effect="non-scaling-stroke"/>
   <path fill-rule="evenodd" d="M1702.64,1960.31 C1702.64,1962.92 1700.52,1965.03 1697.91,1965.03 C1695.3,1965.03 1693.19,1962.92 1693.19,1960.31 C1693.19,1957.7 1695.3,1955.58 1697.91,1955.58 C1700.52,1955.58 1702.64,1957.7 1702.64,1960.31 " vector-effect="non-scaling-stroke"/>
   <path fill-rule="evenodd" d="M2020.73,1697.59 C2020.73,1700.2 2018.62,1702.32 2016.01,1702.32 C2013.4,1702.32 2011.29,1700.2 2011.29,1697.59 C2011.29,1694.98 2013.4,1692.87 2016.01,1692.87 C2018.62,1692.87 2020.73,1694.98 2020.73,1697.59 " vector-effect="non-scaling-stroke"/>
   <path fill-rule="evenodd" d="M1913.07,1464.36 C1913.07,1466.97 1910.96,1469.09 1908.35,1469.09 C1905.74,1469.09 1903.62,1466.97 1903.62,1464.36 C1903.62,1461.75 1905.74,1459.64 1908.35,1459.64 C1910.96,1459.64 1913.07,1461.75 1913.07,1464.36 " vector-effect="non-scaling-stroke"/>
   <path fill-rule="evenodd" d="M2243.71,1030.48 C2243.71,1033.08 2241.59,1035.2 2238.98,1035.2 C2236.37,1035.2 2234.26,1033.08 2234.26,1030.48 C2234.26,1027.87 2236.37,1025.75 2238.98,1025.75 C2241.59,1025.75 2243.71,1027.87 2243.71,1030.48 " vector-effect="non-scaling-stroke"/>
   <path fill-rule="evenodd" d="M2235.9,1358.85 C2235.9,1361.46 2233.78,1363.57 2231.17,1363.57 C2228.56,1363.57 2226.45,1361.46 2226.45,1358.85 C2226.45,1356.24 2228.56,1354.12 2231.17,1354.12 C2233.78,1354.12 2235.9,1356.24 2235.9,1358.85 " vector-effect="non-scaling-stroke"/>
   <path fill-rule="evenodd" d="M1827.1,2247.12 C1827.1,2249.73 1824.98,2251.85 1822.38,2251.85 C1819.77,2251.85 1817.65,2249.73 1817.65,2247.12 C1817.65,2244.51 1819.77,2242.4 1822.38,2242.4 C1824.98,2242.4 1827.1,2244.51 1827.1,2247.12 " vector-effect="non-scaling-stroke"/>
   <path fill-rule="evenodd" d="M1786.93,1333.88 C1786.93,1336.48 1784.81,1338.6 1782.2,1338.6 C1779.59,1338.6 1777.48,1336.48 1777.48,1333.88 C1777.48,1331.27 1779.59,1329.15 1782.2,1329.15 C1784.81,1329.15 1786.93,1331.27 1786.93,1333.88 " vector-effect="non-scaling-stroke"/>
   <path fill-rule="evenodd" d="M1736.63,1042.38 C1736.63,1044.99 1734.51,1047.11 1731.9,1047.11 C1729.29,1047.11 1727.18,1044.99 1727.18,1042.38 C1727.18,1039.77 1729.29,1037.66 1731.9,1037.66 C1734.51,1037.66 1736.63,1039.77 1736.63,1042.38 " vector-effect="non-scaling-stroke"/>
   <path fill-rule="evenodd" d="M1552.78,1352.67 C1552.78,1355.28 1550.67,1357.39 1548.06,1357.39 C1545.45,1357.39 1543.33,1355.28 1543.33,1352.67 C1543.33,1350.06 1545.45,1347.95 1548.06,1347.95 C1550.67,1347.95 1552.78,1350.06 1552.78,1352.67 " vector-effect="non-scaling-stroke"/>
   <path fill-rule="evenodd" d="M1517.42,1039.09 C1517.42,1041.7 1515.3,1043.81 1512.7,1043.81 C1510.09,1043.81 1507.97,1041.7 1507.97,1039.09 C1507.97,1036.48 1510.09,1034.36 1512.7,1034.36 C1515.3,1034.36 1517.42,1036.48 1517.42,1039.09 " vector-effect="non-scaling-stroke"/>
   <path fill-rule="evenodd" d="M2301.07,1079.47 C2301.07,1082.08 2298.95,1084.19 2296.34,1084.19 C2293.73,1084.19 2291.62,1082.08 2291.62,1079.47 C2291.62,1076.86 2293.73,1074.75 2296.34,1074.75 C2298.95,1074.75 2301.07,1076.86 2301.07,1079.47 " vector-effect="non-scaling-stroke"/>
   <path fill-rule="evenodd" d="M1966.4,1089.22 C1966.4,1091.83 1964.28,1093.95 1961.67,1093.95 C1959.07,1093.95 1956.95,1091.83 1956.95,1089.22 C1956.95,1086.61 1959.07,1084.5 1961.67,1084.5 C1964.28,1084.5 1966.4,1086.61 1966.4,1089.22 " vector-effect="non-scaling-stroke"/>
   <path fill-rule="evenodd" d="M1691.27,1892.46 C1691.27,1895.07 1689.16,1897.18 1686.55,1897.18 C1683.94,1897.18 1681.82,1895.07 1681.82,1892.46 C1681.82,1889.85 1683.94,1887.74 1686.55,1887.74 C1689.16,1887.74 1691.27,1889.85 1691.27,1892.46 " vector-effect="non-scaling-stroke"/>
   <path fill-rule="evenodd" d="M1759.81,954.855 C1759.81,957.465 1757.69,959.58 1755.08,959.58 C1752.47,959.58 1750.36,957.465 1750.36,954.855 C1750.36,952.246 1752.47,950.131 1755.08,950.131 C1757.69,950.131 1759.81,952.246 1759.81,954.855 " vector-effect="non-scaling-stroke"/>
   <path fill-rule="evenodd" d="M1539.31,1671.83 C1539.31,1674.43 1537.2,1676.55 1534.59,1676.55 C1531.98,1676.55 1529.86,1674.43 1529.86,1671.83 C1529.86,1669.22 1531.98,1667.1 1534.59,1667.1 C1537.2,1667.1 1539.31,1669.22 1539.31,1671.83 " vector-effect="non-scaling-stroke"/>
   <path fill-rule="evenodd" d="M2002,873.562 C2002,876.171 1999.89,878.286 1997.28,878.286 C1994.67,878.286 1992.55,876.171 1992.55,873.562 C1992.55,870.953 1994.67,868.838 1997.28,868.838 C1999.89,868.838 2002,870.953 2002,873.562 " vector-effect="non-scaling-stroke"/>
   <path fill-rule="evenodd" d="M2173.74,1153.32 C2173.74,1155.93 2171.62,1158.04 2169.01,1158.04 C2166.4,1158.04 2164.29,1155.93 2164.29,1153.32 C2164.29,1150.71 2166.4,1148.59 2169.01,1148.59 C2171.62,1148.59 2173.74,1150.71 2173.74,1153.32 " vector-effect="non-scaling-stroke"/>
   <path fill-rule="evenodd" d="M1446.95,1668.08 C1446.95,1670.69 1444.84,1672.8 1442.23,1672.8 C1439.62,1672.8 1437.5,1670.69 1437.5,1668.08 C1437.5,1665.47 1439.62,1663.35 1442.23,1663.35 C1444.84,1663.35 1446.95,1665.47 1446.95,1668.08 " vector-effect="non-scaling-stroke"/>
   <path fill-rule="evenodd" d="M1786.35,2164.79 C1786.35,2167.4 1784.23,2169.52 1781.62,2169.52 C1779.01,2169.52 1776.9,2167.4 1776.9,2164.79 C1776.9,2162.18 1779.01,2160.07 1781.62,2160.07 C1784.23,2160.07 1786.35,2162.18 1786.35,2164.79 " vector-effect="non-scaling-stroke"/>
   <path fill-rule="evenodd" d="M1698.49,1948.44 C1698.49,1951.05 1696.37,1953.16 1693.76,1953.16 C1691.15,1953.16 1689.04,1951.05 1689.04,1948.44 C1689.04,1945.83 1691.15,1943.71 1693.76,1943.71 C1696.37,1943.71 1698.49,1945.83 1698.49,1948.44 " vector-effect="non-scaling-stroke"/>
   <path fill-rule="evenodd" d="M1607.94,1833.32 C1607.94,1835.92 1605.83,1838.04 1603.22,1838.04 C1600.61,1838.04 1598.5,1835.92 1598.5,1833.32 C1598.5,1830.71 1600.61,1828.59 1603.22,1828.59 C1605.83,1828.59 1607.94,1830.71 1607.94,1833.32 " vector-effect="non-scaling-stroke"/>
   <path fill-rule="evenodd" d="M1451.09,1478.7 C1451.09,1481.31 1448.97,1483.42 1446.36,1483.42 C1443.75,1483.42 1441.64,1481.31 1441.64,1478.7 C1441.64,1476.09 1443.75,1473.97 1446.36,1473.97 C1448.97,1473.97 1451.09,1476.09 1451.09,1478.7 " vector-effect="non-scaling-stroke"/>
   <path fill-rule="evenodd" d="M1536.51,1625.32 C1536.51,1627.93 1534.4,1630.04 1531.79,1630.04 C1529.18,1630.04 1527.07,1627.93 1527.07,1625.32 C1527.07,1622.71 1529.18,1620.59 1531.79,1620.59 C1534.4,1620.59 1536.51,1622.71 1536.51,1625.32 " vector-effect="non-scaling-stroke"/>
   <path fill-rule="evenodd" d="M1468.68,1724.55 C1468.68,1727.16 1466.56,1729.28 1463.96,1729.28 C1461.35,1729.28 1459.23,1727.16 1459.23,1724.55 C1459.23,1721.94 1461.35,1719.83 1463.96,1719.83 C1466.56,1719.83 1468.68,1721.94 1468.68,1724.55 " vector-effect="non-scaling-stroke"/>
   <path fill-rule="evenodd" d="M2005.39,1519.71 C2005.39,1522.32 2003.27,1524.44 2000.66,1524.44 C1998.05,1524.44 1995.94,1522.32 1995.94,1519.71 C1995.94,1517.1 1998.05,1514.99 2000.66,1514.99 C2003.27,1514.99 2005.39,1517.1 2005.39,1519.71 " vector-effect="non-scaling-stroke"/>
   <path fill-rule="evenodd" d="M1280.39,1414.65 C1280.39,1417.26 1278.28,1419.37 1275.67,1419.37 C1273.06,1419.37 1270.94,1417.26 1270.94,1414.65 C1270.94,1412.04 1273.06,1409.93 1275.67,1409.93 C1278.28,1409.93 1280.39,1412.04 1280.39,1414.65 " vector-effect="non-scaling-stroke"/>
   <path fill-rule="evenodd" d="M1823.86,1604.82 C1823.86,1607.43 1821.75,1609.55 1819.14,1609.55 C1816.53,1609.55 1814.41,1607.43 1814.41,1604.82 C1814.41,1602.21 1816.53,1600.1 1819.14,1600.1 C1821.75,1600.1 1823.86,1602.21 1823.86,1604.82 " vector-effect="non-scaling-stroke"/>
   <path fill-rule="evenodd" d="M1673.1,1896.22 C1673.1,1898.83 1670.99,1900.94 1668.38,1900.94 C1665.77,1900.94 1663.65,1898.83 1663.65,1896.22 C1663.65,1893.61 1665.77,1891.49 1668.38,1891.49 C1670.99,1891.49 1673.1,1893.61 1673.1,1896.22 " vector-effect="non-scaling-stroke"/>
   <path fill-rule="evenodd" d="M1812.16,2025.14 C1812.16,2027.75 1810.05,2029.87 1807.44,2029.87 C1804.83,2029.87 1802.71,2027.75 1802.71,2025.14 C1802.71,2022.53 1804.83,2020.42 1807.44,2020.42 C1810.05,2020.42 1812.16,2022.53 1812.16,2025.14 " vector-effect="non-scaling-stroke"/>
   <path fill-rule="evenodd" d="M1749.77,1773.96 C1749.77,1776.57 1747.65,1778.69 1745.04,1778.69 C1742.43,1778.69 1740.32,1776.57 1740.32,1773.96 C1740.32,1771.36 1742.43,1769.24 1745.04,1769.24 C1747.65,1769.24 1749.77,1771.36 1749.77,1773.96 " vector-effect="non-scaling-stroke"/>
   <path fill-rule="evenodd" d="M2023.45,718.909 C2023.45,721.518 2021.34,723.633 2018.73,723.633 C2016.12,723.633 2014,721.518 2014,718.909 C2014,716.3 2016.12,714.185 2018.73,714.185 C2021.34,714.185 2023.45,716.3 2023.45,718.909 " vector-effect="non-scaling-stroke"/>
   <path fill-rule="evenodd" d="M1781.38,1785.6 C1781.38,1788.21 1779.27,1790.33 1776.66,1790.33 C1774.05,1790.33 1771.93,1788.21 1771.93,1785.6 C1771.93,1782.99 1774.05,1780.88 1776.66,1780.88 C1779.27,1780.88 1781.38,1782.99 1781.38,1785.6 " vector-effect="non-scaling-stroke"/>
   <path fill-rule="evenodd" d="M1921.83,1685.48 C1921.83,1688.09 1919.72,1690.21 1917.11,1690.21 C1914.5,1690.21 1912.38,1688.09 1912.38,1685.48 C1912.38,1682.87 1914.5,1680.76 1917.11,1680.76 C1919.72,1680.76 1921.83,1682.87 1921.83,1685.48 " vector-effect="non-scaling-stroke"/>
   <path fill-rule="evenodd" d="M1647.87,1663.49 C1647.87,1666.09 1645.76,1668.21 1643.15,1668.21 C1640.54,1668.21 1638.42,1666.09 1638.42,1663.49 C1638.42,1660.88 1640.54,1658.76 1643.15,1658.76 C1645.76,1658.76 1647.87,1660.88 1647.87,1663.49 " vector-effect="non-scaling-stroke"/>
   <path fill-rule="evenodd" d="M2199.72,1390.31 C2199.72,1392.92 2197.6,1395.04 2194.99,1395.04 C2192.38,1395.04 2190.27,1392.92 2190.27,1390.31 C2190.27,1387.7 2192.38,1385.59 2194.99,1385.59 C2197.6,1385.59 2199.72,1387.7 2199.72,1390.31 " vector-effect="non-scaling-stroke"/>
   <path fill-rule="evenodd" d="M1863.2,1461.25 C1863.2,1463.86 1861.09,1465.97 1858.48,1465.97 C1855.87,1465.97 1853.76,1463.86 1853.76,1461.25 C1853.76,1458.64 1855.87,1456.53 1858.48,1456.53 C1861.09,1456.53 1863.2,1458.64 1863.2,1461.25 " vector-effect="non-scaling-stroke"/>
   <path fill-rule="evenodd" d="M1554.68,1302.72 C1554.68,1305.33 1552.57,1307.45 1549.96,1307.45 C1547.35,1307.45 1545.23,1305.33 1545.23,1302.72 C1545.23,1300.11 1547.35,1298 1549.96,1298 C1552.57,1298 1554.68,1300.11 1554.68,1302.72 " vector-effect="non-scaling-stroke"/>
   <path fill-rule="evenodd" d="M1729.51,1229.26 C1729.51,1231.87 1727.39,1233.99 1724.78,1233.99 C1722.17,1233.99 1720.06,1231.87 1720.06,1229.26 C1720.06,1226.65 1722.17,1224.54 1724.78,1224.54 C1727.39,1224.54 1729.51,1226.65 1729.51,1229.26 " vector-effect="non-scaling-stroke"/>
   <path fill-rule="evenodd" d="M2001.24,862.384 C2001.24,864.994 1999.13,867.109 1996.52,867.109 C1993.91,867.109 1991.79,864.994 1991.79,862.384 C1991.79,859.775 1993.91,857.66 1996.52,857.66 C1999.13,857.66 2001.24,859.775 2001.24,862.384 " vector-effect="non-scaling-stroke"/>
   <path fill-rule="evenodd" d="M1677.1,1798.4 C1677.1,1801.01 1674.99,1803.13 1672.38,1803.13 C1669.77,1803.13 1667.65,1801.01 1667.65,1798.4 C1667.65,1795.8 1669.77,1793.68 1672.38,1793.68 C1674.99,1793.68 1677.1,1795.8 1677.1,1798.4 " vector-effect="non-scaling-stroke"/>
   <path fill-rule="evenodd" d="M1429.34,1355.41 C1429.34,1358.02 1427.23,1360.13 1424.62,1360.13 C1422.01,1360.13 1419.9,1358.02 1419.9,1355.41 C1419.9,1352.8 1422.01,1350.68 1424.62,1350.68 C1427.23,1350.68 1429.34,1352.8 1429.34,1355.41 " vector-effect="non-scaling-stroke"/>
   <path fill-rule="evenodd" d="M1819.78,2136.69 C1819.78,2139.3 1817.66,2141.42 1815.05,2141.42 C1812.44,2141.42 1810.33,2139.3 1810.33,2136.69 C1810.33,2134.08 1812.44,2131.97 1815.05,2131.97 C1817.66,2131.97 1819.78,2134.08 1819.78,2136.69 " vector-effect="non-scaling-stroke"/>
   <path fill-rule="evenodd" d="M2087.96,1622.32 C2087.96,1624.93 2085.84,1627.04 2083.24,1627.04 C2080.63,1627.04 2078.51,1624.93 2078.51,1622.32 C2078.51,1619.71 2080.63,1617.59 2083.24,1617.59 C2085.84,1617.59 2087.96,1619.71 2087.96,1622.32 " vector-effect="non-scaling-stroke"/>
   <path fill-rule="evenodd" d="M1725.91,1265.07 C1725.91,1267.68 1723.79,1269.79 1721.18,1269.79 C1718.57,1269.79 1716.46,1267.68 1716.46,1265.07 C1716.46,1262.46 1718.57,1260.34 1721.18,1260.34 C1723.79,1260.34 1725.91,1262.46 1725.91,1265.07 " vector-effect="non-scaling-stroke"/>
   <path fill-rule="evenodd" d="M1827.93,2170.34 C1827.93,2172.95 1825.82,2175.06 1823.21,2175.06 C1820.6,2175.06 1818.48,2172.95 1818.48,2170.34 C1818.48,2167.73 1820.6,2165.61 1823.21,2165.61 C1825.82,2165.61 1827.93,2167.73 1827.93,2170.34 " vector-effect="non-scaling-stroke"/>
   <path fill-rule="evenodd" d="M1993.28,1873.33 C1993.28,1875.94 1991.17,1878.05 1988.56,1878.05 C1985.95,1878.05 1983.83,1875.94 1983.83,1873.33 C1983.83,1870.72 1985.95,1868.6 1988.56,1868.6 C1991.17,1868.6 1993.28,1870.72 1993.28,1873.33 " vector-effect="non-scaling-stroke"/>
   <path fill-rule="evenodd" d="M2039.2,1655.49 C2039.2,1658.09 2037.08,1660.21 2034.47,1660.21 C2031.86,1660.21 2029.75,1658.09 2029.75,1655.49 C2029.75,1652.88 2031.86,1650.76 2034.47,1650.76 C2037.08,1650.76 2039.2,1652.88 2039.2,1655.49 " vector-effect="non-scaling-stroke"/>
   <path fill-rule="evenodd" d="M2055.53,1768.49 C2055.53,1771.1 2053.41,1773.21 2050.81,1773.21 C2048.2,1773.21 2046.08,1771.1 2046.08,1768.49 C2046.08,1765.88 2048.2,1763.76 2050.81,1763.76 C2053.41,1763.76 2055.53,1765.88 2055.53,1768.49 " vector-effect="non-scaling-stroke"/>
   <path fill-rule="evenodd" d="M1451.48,1572.76 C1451.48,1575.37 1449.36,1577.49 1446.75,1577.49 C1444.14,1577.49 1442.03,1575.37 1442.03,1572.76 C1442.03,1570.15 1444.14,1568.04 1446.75,1568.04 C1449.36,1568.04 1451.48,1570.15 1451.48,1572.76 " vector-effect="non-scaling-stroke"/>
   <path fill-rule="evenodd" d="M1487.36,1872.96 C1487.36,1875.57 1485.25,1877.69 1482.64,1877.69 C1480.03,1877.69 1477.91,1875.57 1477.91,1872.96 C1477.91,1870.35 1480.03,1868.24 1482.64,1868.24 C1485.25,1868.24 1487.36,1870.35 1487.36,1872.96 " vector-effect="non-scaling-stroke"/>
   <path fill-rule="evenodd" d="M1935.04,1809.64 C1935.04,1812.25 1932.92,1814.36 1930.31,1814.36 C1927.7,1814.36 1925.59,1812.25 1925.59,1809.64 C1925.59,1807.03 1927.7,1804.91 1930.31,1804.91 C1932.92,1804.91 1935.04,1807.03 1935.04,1809.64 " vector-effect="non-scaling-stroke"/>
   <path fill-rule="evenodd" d="M1654.4,1898.92 C1654.4,1901.53 1652.28,1903.64 1649.67,1903.64 C1647.06,1903.64 1644.95,1901.53 1644.95,1898.92 C1644.95,1896.31 1647.06,1894.19 1649.67,1894.19 C1652.28,1894.19 1654.4,1896.31 1654.4,1898.92 " vector-effect="non-scaling-stroke"/>
   <path fill-rule="evenodd" d="M1861.54,2382.22 C1861.54,2384.83 1859.42,2386.95 1856.81,2386.95 C1854.2,2386.95 1852.09,2384.83 1852.09,2382.22 C1852.09,2379.61 1854.2,2377.5 1856.81,2377.5 C1859.42,2377.5 1861.54,2379.61 1861.54,2382.22 " vector-effect="non-scaling-stroke"/>
   <path fill-rule="evenodd" d="M2069.78,1896.69 C2069.78,1899.3 2067.67,1901.42 2065.06,1901.42 C2062.45,1901.42 2060.34,1899.3 2060.34,1896.69 C2060.34,1894.08 2062.45,1891.97 2065.06,1891.97 C2067.67,1891.97 2069.78,1894.08 2069.78,1896.69 " vector-effect="non-scaling-stroke"/>
   <path fill-rule="evenodd" d="M2415.96,535.843 C2415.96,538.453 2413.85,540.568 2411.24,540.568 C2408.63,540.568 2406.51,538.453 2406.51,535.843 C2406.51,533.234 2408.63,531.119 2411.24,531.119 C2413.85,531.119 2415.96,533.234 2415.96,535.843 " vector-effect="non-scaling-stroke"/>
   <path fill-rule="evenodd" d="M1820.27,1024.36 C1820.27,1026.97 1818.16,1029.09 1815.55,1029.09 C1812.94,1029.09 1810.82,1026.97 1810.82,1024.36 C1810.82,1021.75 1812.94,1019.64 1815.55,1019.64 C1818.16,1019.64 1820.27,1021.75 1820.27,1024.36 " vector-effect="non-scaling-stroke"/>
   <path fill-rule="evenodd" d="M1837.48,2205.53 C1837.48,2208.14 1835.37,2210.26 1832.76,2210.26 C1830.15,2210.26 1828.03,2208.14 1828.03,2205.53 C1828.03,2202.92 1830.15,2200.81 1832.76,2200.81 C1835.37,2200.81 1837.48,2202.92 1837.48,2205.53 " vector-effect="non-scaling-stroke"/>
   <path fill-rule="evenodd" d="M2070.04,1055.12 C2070.04,1057.73 2067.92,1059.84 2065.31,1059.84 C2062.7,1059.84 2060.59,1057.73 2060.59,1055.12 C2060.59,1052.51 2062.7,1050.39 2065.31,1050.39 C2067.92,1050.39 2070.04,1052.51 2070.04,1055.12 " vector-effect="non-scaling-stroke"/>
   <path fill-rule="evenodd" d="M2056.61,1666.12 C2056.61,1668.73 2054.5,1670.84 2051.89,1670.84 C2049.28,1670.84 2047.16,1668.73 2047.16,1666.12 C2047.16,1663.51 2049.28,1661.39 2051.89,1661.39 C2054.5,1661.39 2056.61,1663.51 2056.61,1666.12 " vector-effect="non-scaling-stroke"/>
   <path fill-rule="evenodd" d="M1588.65,1432.34 C1588.65,1434.95 1586.54,1437.07 1583.93,1437.07 C1581.32,1437.07 1579.2,1434.95 1579.2,1432.34 C1579.2,1429.73 1581.32,1427.62 1583.93,1427.62 C1586.54,1427.62 1588.65,1429.73 1588.65,1432.34 " vector-effect="non-scaling-stroke"/>
   <path fill-rule="evenodd" d="M1951.15,1721.8 C1951.15,1724.41 1949.04,1726.53 1946.43,1726.53 C1943.82,1726.53 1941.7,1724.41 1941.7,1721.8 C1941.7,1719.2 1943.82,1717.08 1946.43,1717.08 C1949.04,1717.08 1951.15,1719.2 1951.15,1721.8 " vector-effect="non-scaling-stroke"/>
   <path fill-rule="evenodd" d="M2167.98,1233.33 C2167.98,1235.94 2165.86,1238.05 2163.25,1238.05 C2160.64,1238.05 2158.53,1235.94 2158.53,1233.33 C2158.53,1230.72 2160.64,1228.6 2163.25,1228.6 C2165.86,1228.6 2167.98,1230.72 2167.98,1233.33 " vector-effect="non-scaling-stroke"/>
   <path fill-rule="evenodd" d="M1887.72,679.649 C1887.72,682.258 1885.61,684.373 1883,684.373 C1880.39,684.373 1878.27,682.258 1878.27,679.649 C1878.27,677.039 1880.39,674.924 1883,674.924 C1885.61,674.924 1887.72,677.039 1887.72,679.649 " vector-effect="non-scaling-stroke"/>
   <path fill-rule="evenodd" d="M1794.04,1412.05 C1794.04,1414.65 1791.93,1416.77 1789.32,1416.77 C1786.71,1416.77 1784.6,1414.65 1784.6,1412.05 C1784.6,1409.44 1786.71,1407.32 1789.32,1407.32 C1791.93,1407.32 1794.04,1409.44 1794.04,1412.05 " vector-effect="non-scaling-stroke"/>
   <path fill-rule="evenodd" d="M2069.46,501.71 C2069.46,504.32 2067.35,506.435 2064.74,506.435 C2062.13,506.435 2060.01,504.32 2060.01,501.71 C2060.01,499.101 2062.13,496.986 2064.74,496.986 C2067.35,496.986 2069.46,499.101 2069.46,501.71 " vector-effect="non-scaling-stroke"/>
   <path fill-rule="evenodd" d="M1995.55,1858.77 C1995.55,1861.38 1993.43,1863.5 1990.82,1863.5 C1988.21,1863.5 1986.1,1861.38 1986.1,1858.77 C1986.1,1856.16 1988.21,1854.05 1990.82,1854.05 C1993.43,1854.05 1995.55,1856.16 1995.55,1858.77 " vector-effect="non-scaling-stroke"/>
   <path fill-rule="evenodd" d="M1636.66,1481.26 C1636.66,1483.87 1634.55,1485.99 1631.94,1485.99 C1629.33,1485.99 1627.21,1483.87 1627.21,1481.26 C1627.21,1478.65 1629.33,1476.54 1631.94,1476.54 C1634.55,1476.54 1636.66,1478.65 1636.66,1481.26 " vector-effect="non-scaling-stroke"/>
   <path fill-rule="evenodd" d="M1862.43,901.114 C1862.43,903.723 1860.31,905.838 1857.7,905.838 C1855.09,905.838 1852.98,903.723 1852.98,901.114 C1852.98,898.505 1855.09,896.389 1857.7,896.389 C1860.31,896.389 1862.43,898.505 1862.43,901.114 " vector-effect="non-scaling-stroke"/>
   <path fill-rule="evenodd" d="M1979.64,1674.53 C1979.64,1677.14 1977.53,1679.25 1974.92,1679.25 C1972.31,1679.25 1970.19,1677.14 1970.19,1674.53 C1970.19,1671.92 1972.31,1669.81 1974.92,1669.81 C1977.53,1669.81 1979.64,1671.92 1979.64,1674.53 " vector-effect="non-scaling-stroke"/>
   <path fill-rule="evenodd" d="M1411.34,1748.06 C1411.34,1750.67 1409.23,1752.79 1406.62,1752.79 C1404.01,1752.79 1401.89,1750.67 1401.89,1748.06 C1401.89,1745.45 1404.01,1743.34 1406.62,1743.34 C1409.23,1743.34 1411.34,1745.45 1411.34,1748.06 " vector-effect="non-scaling-stroke"/>
   <path fill-rule="evenodd" d="M1929.6,1068.4 C1929.6,1071.01 1927.49,1073.12 1924.88,1073.12 C1922.27,1073.12 1920.15,1071.01 1920.15,1068.4 C1920.15,1065.79 1922.27,1063.67 1924.88,1063.67 C1927.49,1063.67 1929.6,1065.79 1929.6,1068.4 " vector-effect="non-scaling-stroke"/>
   <path fill-rule="evenodd" d="M1403.03,1641.32 C1403.03,1643.93 1400.92,1646.05 1398.31,1646.05 C1395.7,1646.05 1393.58,1643.93 1393.58,1641.32 C1393.58,1638.71 1395.7,1636.6 1398.31,1636.6 C1400.92,1636.6 1403.03,1638.71 1403.03,1641.32 " vector-effect="non-scaling-stroke"/>
   <path fill-rule="evenodd" d="M1898.22,703.072 C1898.22,705.681 1896.1,707.796 1893.49,707.796 C1890.88,707.796 1888.77,705.681 1888.77,703.072 C1888.77,700.462 1890.88,698.347 1893.49,698.347 C1896.1,698.347 1898.22,700.462 1898.22,703.072 " vector-effect="non-scaling-stroke"/>
   <path fill-rule="evenodd" d="M2235.19,1109.43 C2235.19,1112.04 2233.07,1114.15 2230.46,1114.15 C2227.85,1114.15 2225.74,1112.04 2225.74,1109.43 C2225.74,1106.82 2227.85,1104.7 2230.46,1104.7 C2233.07,1104.7 2235.19,1106.82 2235.19,1109.43 " vector-effect="non-scaling-stroke"/>
   <path fill-rule="evenodd" d="M1810.5,1844.65 C1810.5,1847.26 1808.38,1849.37 1805.77,1849.37 C1803.17,1849.37 1801.05,1847.26 1801.05,1844.65 C1801.05,1842.04 1803.17,1839.92 1805.77,1839.92 C1808.38,1839.92 1810.5,1842.04 1810.5,1844.65 " vector-effect="non-scaling-stroke"/>
   <path fill-rule="evenodd" d="M2208.33,1357.86 C2208.33,1360.47 2206.21,1362.58 2203.6,1362.58 C2201,1362.58 2198.88,1360.47 2198.88,1357.86 C2198.88,1355.25 2201,1353.13 2203.6,1353.13 C2206.21,1353.13 2208.33,1355.25 2208.33,1357.86 " vector-effect="non-scaling-stroke"/>
   <path fill-rule="evenodd" d="M1576.47,1535.95 C1576.47,1538.56 1574.36,1540.67 1571.75,1540.67 C1569.14,1540.67 1567.02,1538.56 1567.02,1535.95 C1567.02,1533.34 1569.14,1531.22 1571.75,1531.22 C1574.36,1531.22 1576.47,1533.34 1576.47,1535.95 " vector-effect="non-scaling-stroke"/>
   <path fill-rule="evenodd" d="M2174.24,1402.95 C2174.24,1405.56 2172.13,1407.68 2169.52,1407.68 C2166.91,1407.68 2164.79,1405.56 2164.79,1402.95 C2164.79,1400.34 2166.91,1398.23 2169.52,1398.23 C2172.13,1398.23 2174.24,1400.34 2174.24,1402.95 " vector-effect="non-scaling-stroke"/>
   <path fill-rule="evenodd" d="M2003.86,684.63 C2003.86,687.24 2001.75,689.355 1999.14,689.355 C1996.53,689.355 1994.41,687.24 1994.41,684.63 C1994.41,682.021 1996.53,679.906 1999.14,679.906 C2001.75,679.906 2003.86,682.021 2003.86,684.63 " vector-effect="non-scaling-stroke"/>
   <path fill-rule="evenodd" d="M1906.28,1786.27 C1906.28,1788.88 1904.16,1790.99 1901.55,1790.99 C1898.94,1790.99 1896.83,1788.88 1896.83,1786.27 C1896.83,1783.66 1898.94,1781.54 1901.55,1781.54 C1904.16,1781.54 1906.28,1783.66 1906.28,1786.27 " vector-effect="non-scaling-stroke"/>
   <path fill-rule="evenodd" d="M1918.15,1618.55 C1918.15,1621.16 1916.04,1623.27 1913.43,1623.27 C1910.82,1623.27 1908.7,1621.16 1908.7,1618.55 C1908.7,1615.94 1910.82,1613.83 1913.43,1613.83 C1916.04,1613.83 1918.15,1615.94 1918.15,1618.55 " vector-effect="non-scaling-stroke"/>
   <path fill-rule="evenodd" d="M1790.34,1301.94 C1790.34,1304.55 1788.23,1306.67 1785.62,1306.67 C1783.01,1306.67 1780.89,1304.55 1780.89,1301.94 C1780.89,1299.33 1783.01,1297.22 1785.62,1297.22 C1788.23,1297.22 1790.34,1299.33 1790.34,1301.94 " vector-effect="non-scaling-stroke"/>
   <path fill-rule="evenodd" d="M2366.41,324.366 C2366.41,326.975 2364.3,329.09 2361.69,329.09 C2359.08,329.09 2356.96,326.975 2356.96,324.366 C2356.96,321.757 2359.08,319.642 2361.69,319.642 C2364.3,319.642 2366.41,321.757 2366.41,324.366 " vector-effect="non-scaling-stroke"/>
   <path fill-rule="evenodd" d="M1712.88,1248.35 C1712.88,1250.96 1710.76,1253.08 1708.15,1253.08 C1705.54,1253.08 1703.43,1250.96 1703.43,1248.35 C1703.43,1245.75 1705.54,1243.63 1708.15,1243.63 C1710.76,1243.63 1712.88,1245.75 1712.88,1248.35 " vector-effect="non-scaling-stroke"/>
   <path fill-rule="evenodd" d="M1500.34,1717.49 C1500.34,1720.1 1498.22,1722.22 1495.61,1722.22 C1493,1722.22 1490.89,1720.1 1490.89,1717.49 C1490.89,1714.88 1493,1712.77 1495.61,1712.77 C1498.22,1712.77 1500.34,1714.88 1500.34,1717.49 " vector-effect="non-scaling-stroke"/>
   <path fill-rule="evenodd" d="M2387.4,1068.16 C2387.4,1070.77 2385.29,1072.88 2382.68,1072.88 C2380.07,1072.88 2377.95,1070.77 2377.95,1068.16 C2377.95,1065.55 2380.07,1063.44 2382.68,1063.44 C2385.29,1063.44 2387.4,1065.55 2387.4,1068.16 " vector-effect="non-scaling-stroke"/>
   <path fill-rule="evenodd" d="M2087.58,1432.89 C2087.58,1435.5 2085.47,1437.61 2082.86,1437.61 C2080.25,1437.61 2078.14,1435.5 2078.14,1432.89 C2078.14,1430.28 2080.25,1428.16 2082.86,1428.16 C2085.47,1428.16 2087.58,1430.28 2087.58,1432.89 " vector-effect="non-scaling-stroke"/>
   <path fill-rule="evenodd" d="M1551.3,1748.33 C1551.3,1750.94 1549.19,1753.05 1546.58,1753.05 C1543.97,1753.05 1541.85,1750.94 1541.85,1748.33 C1541.85,1745.72 1543.97,1743.6 1546.58,1743.6 C1549.19,1743.6 1551.3,1745.72 1551.3,1748.33 " vector-effect="non-scaling-stroke"/>
   <path fill-rule="evenodd" d="M1973.95,1082.31 C1973.95,1084.92 1971.84,1087.03 1969.23,1087.03 C1966.62,1087.03 1964.51,1084.92 1964.51,1082.31 C1964.51,1079.7 1966.62,1077.58 1969.23,1077.58 C1971.84,1077.58 1973.95,1079.7 1973.95,1082.31 " vector-effect="non-scaling-stroke"/>
   <path fill-rule="evenodd" d="M1418.21,1795.82 C1418.21,1798.43 1416.1,1800.55 1413.49,1800.55 C1410.88,1800.55 1408.77,1798.43 1408.77,1795.82 C1408.77,1793.21 1410.88,1791.1 1413.49,1791.1 C1416.1,1791.1 1418.21,1793.21 1418.21,1795.82 " vector-effect="non-scaling-stroke"/>
   <path fill-rule="evenodd" d="M1974.89,1611.18 C1974.89,1613.79 1972.78,1615.91 1970.17,1615.91 C1967.56,1615.91 1965.45,1613.79 1965.45,1611.18 C1965.45,1608.57 1967.56,1606.46 1970.17,1606.46 C1972.78,1606.46 1974.89,1608.57 1974.89,1611.18 " vector-effect="non-scaling-stroke"/>
   <path fill-rule="evenodd" d="M1652.92,1654.44 C1652.92,1657.05 1650.8,1659.16 1648.19,1659.16 C1645.58,1659.16 1643.47,1657.05 1643.47,1654.44 C1643.47,1651.83 1645.58,1649.72 1648.19,1649.72 C1650.8,1649.72 1652.92,1651.83 1652.92,1654.44 " vector-effect="non-scaling-stroke"/>
   <path fill-rule="evenodd" d="M2102.01,1246.01 C2102.01,1248.62 2099.9,1250.73 2097.29,1250.73 C2094.68,1250.73 2092.56,1248.62 2092.56,1246.01 C2092.56,1243.4 2094.68,1241.28 2097.29,1241.28 C2099.9,1241.28 2102.01,1243.4 2102.01,1246.01 " vector-effect="non-scaling-stroke"/>
   <path fill-rule="evenodd" d="M1559.31,1389.54 C1559.31,1392.15 1557.2,1394.26 1554.59,1394.26 C1551.98,1394.26 1549.86,1392.15 1549.86,1389.54 C1549.86,1386.93 1551.98,1384.81 1554.59,1384.81 C1557.2,1384.81 1559.31,1386.93 1559.31,1389.54 " vector-effect="non-scaling-stroke"/>
   <path fill-rule="evenodd" d="M1821.94,2138.55 C1821.94,2141.15 1819.83,2143.27 1817.22,2143.27 C1814.61,2143.27 1812.49,2141.15 1812.49,2138.55 C1812.49,2135.94 1814.61,2133.82 1817.22,2133.82 C1819.83,2133.82 1821.94,2135.94 1821.94,2138.55 " vector-effect="non-scaling-stroke"/>
   <path fill-rule="evenodd" d="M1549.5,1982.63 C1549.5,1985.24 1547.39,1987.35 1544.78,1987.35 C1542.17,1987.35 1540.05,1985.24 1540.05,1982.63 C1540.05,1980.02 1542.17,1977.91 1544.78,1977.91 C1547.39,1977.91 1549.5,1980.02 1549.5,1982.63 " vector-effect="non-scaling-stroke"/>
   <path fill-rule="evenodd" d="M1766.61,1506.57 C1766.61,1509.18 1764.5,1511.3 1761.89,1511.3 C1759.28,1511.3 1757.16,1509.18 1757.16,1506.57 C1757.16,1503.97 1759.28,1501.85 1761.89,1501.85 C1764.5,1501.85 1766.61,1503.97 1766.61,1506.57 " vector-effect="non-scaling-stroke"/>
   <path fill-rule="evenodd" d="M1967.03,1927.38 C1967.03,1929.99 1964.91,1932.11 1962.3,1932.11 C1959.69,1932.11 1957.58,1929.99 1957.58,1927.38 C1957.58,1924.78 1959.69,1922.66 1962.3,1922.66 C1964.91,1922.66 1967.03,1924.78 1967.03,1927.38 " vector-effect="non-scaling-stroke"/>
   <path fill-rule="evenodd" d="M1690.63,1916.45 C1690.63,1919.06 1688.51,1921.18 1685.9,1921.18 C1683.3,1921.18 1681.18,1919.06 1681.18,1916.45 C1681.18,1913.84 1683.3,1911.73 1685.9,1911.73 C1688.51,1911.73 1690.63,1913.84 1690.63,1916.45 " vector-effect="non-scaling-stroke"/>
   <path fill-rule="evenodd" d="M1909.68,1491.77 C1909.68,1494.38 1907.56,1496.49 1904.95,1496.49 C1902.35,1496.49 1900.23,1494.38 1900.23,1491.77 C1900.23,1489.16 1902.35,1487.04 1904.95,1487.04 C1907.56,1487.04 1909.68,1489.16 1909.68,1491.77 " vector-effect="non-scaling-stroke"/>
   <path fill-rule="evenodd" d="M1701.69,1536.23 C1701.69,1538.84 1699.57,1540.96 1696.96,1540.96 C1694.35,1540.96 1692.24,1538.84 1692.24,1536.23 C1692.24,1533.62 1694.35,1531.51 1696.96,1531.51 C1699.57,1531.51 1701.69,1533.62 1701.69,1536.23 " vector-effect="non-scaling-stroke"/>
   <path fill-rule="evenodd" d="M1774.58,897.818 C1774.58,900.427 1772.46,902.543 1769.85,902.543 C1767.24,902.543 1765.13,900.427 1765.13,897.818 C1765.13,895.209 1767.24,893.094 1769.85,893.094 C1772.46,893.094 1774.58,895.209 1774.58,897.818 " vector-effect="non-scaling-stroke"/>
   <path fill-rule="evenodd" d="M1974.46,1521.17 C1974.46,1523.78 1972.34,1525.9 1969.73,1525.9 C1967.12,1525.9 1965.01,1523.78 1965.01,1521.17 C1965.01,1518.57 1967.12,1516.45 1969.73,1516.45 C1972.34,1516.45 1974.46,1518.57 1974.46,1521.17 " vector-effect="non-scaling-stroke"/>
   <path fill-rule="evenodd" d="M2056.51,1066.29 C2056.51,1068.9 2054.4,1071.01 2051.79,1071.01 C2049.18,1071.01 2047.06,1068.9 2047.06,1066.29 C2047.06,1063.68 2049.18,1061.56 2051.79,1061.56 C2054.4,1061.56 2056.51,1063.68 2056.51,1066.29 " vector-effect="non-scaling-stroke"/>
   <path fill-rule="evenodd" d="M1815.86,2090.2 C1815.86,2092.81 1813.75,2094.93 1811.14,2094.93 C1808.53,2094.93 1806.41,2092.81 1806.41,2090.2 C1806.41,2087.59 1808.53,2085.48 1811.14,2085.48 C1813.75,2085.48 1815.86,2087.59 1815.86,2090.2 " vector-effect="non-scaling-stroke"/>
   <path fill-rule="evenodd" d="M1972.73,905.682 C1972.73,908.292 1970.61,910.407 1968,910.407 C1965.4,910.407 1963.28,908.292 1963.28,905.682 C1963.28,903.073 1965.4,900.958 1968,900.958 C1970.61,900.958 1972.73,903.073 1972.73,905.682 " vector-effect="non-scaling-stroke"/>
   <path fill-rule="evenodd" d="M1686.18,1531.76 C1686.18,1534.36 1684.07,1536.48 1681.46,1536.48 C1678.85,1536.48 1676.74,1534.36 1676.74,1531.76 C1676.74,1529.15 1678.85,1527.03 1681.46,1527.03 C1684.07,1527.03 1686.18,1529.15 1686.18,1531.76 " vector-effect="non-scaling-stroke"/>
   <path fill-rule="evenodd" d="M1837.34,674.868 C1837.34,677.477 1835.22,679.592 1832.61,679.592 C1830,679.592 1827.89,677.477 1827.89,674.868 C1827.89,672.259 1830,670.144 1832.61,670.144 C1835.22,670.144 1837.34,672.259 1837.34,674.868 " vector-effect="non-scaling-stroke"/>
   <path fill-rule="evenodd" d="M1648.67,1689.69 C1648.67,1692.3 1646.56,1694.41 1643.95,1694.41 C1641.34,1694.41 1639.22,1692.3 1639.22,1689.69 C1639.22,1687.08 1641.34,1684.96 1643.95,1684.96 C1646.56,1684.96 1648.67,1687.08 1648.67,1689.69 " vector-effect="non-scaling-stroke"/>
   <path fill-rule="evenodd" d="M1446.32,1670.13 C1446.32,1672.74 1444.2,1674.85 1441.6,1674.85 C1438.99,1674.85 1436.87,1672.74 1436.87,1670.13 C1436.87,1667.52 1438.99,1665.4 1441.6,1665.4 C1444.2,1665.4 1446.32,1667.52 1446.32,1670.13 " vector-effect="non-scaling-stroke"/>
   <path fill-rule="evenodd" d="M1506.84,1533.46 C1506.84,1536.07 1504.72,1538.19 1502.11,1538.19 C1499.5,1538.19 1497.39,1536.07 1497.39,1533.46 C1497.39,1530.85 1499.5,1528.74 1502.11,1528.74 C1504.72,1528.74 1506.84,1530.85 1506.84,1533.46 " vector-effect="non-scaling-stroke"/>
   <path fill-rule="evenodd" d="M1543.07,1728.58 C1543.07,1731.19 1540.96,1733.3 1538.35,1733.3 C1535.74,1733.3 1533.62,1731.19 1533.62,1728.58 C1533.62,1725.97 1535.74,1723.85 1538.35,1723.85 C1540.96,1723.85 1543.07,1725.97 1543.07,1728.58 " vector-effect="non-scaling-stroke"/>
   <path fill-rule="evenodd" d="M1759.75,1576.38 C1759.75,1578.99 1757.63,1581.11 1755.02,1581.11 C1752.41,1581.11 1750.3,1578.99 1750.3,1576.38 C1750.3,1573.77 1752.41,1571.66 1755.02,1571.66 C1757.63,1571.66 1759.75,1573.77 1759.75,1576.38 " vector-effect="non-scaling-stroke"/>
   <path fill-rule="evenodd" d="M1643.31,1311.93 C1643.31,1314.54 1641.2,1316.65 1638.59,1316.65 C1635.98,1316.65 1633.86,1314.54 1633.86,1311.93 C1633.86,1309.32 1635.98,1307.21 1638.59,1307.21 C1641.2,1307.21 1643.31,1309.32 1643.31,1311.93 " vector-effect="non-scaling-stroke"/>
   <path fill-rule="evenodd" d="M1820.85,1391.55 C1820.85,1394.16 1818.73,1396.27 1816.12,1396.27 C1813.51,1396.27 1811.4,1394.16 1811.4,1391.55 C1811.4,1388.94 1813.51,1386.83 1816.12,1386.83 C1818.73,1386.83 1820.85,1388.94 1820.85,1391.55 " vector-effect="non-scaling-stroke"/>
   <path fill-rule="evenodd" d="M2053.41,1856.95 C2053.41,1859.56 2051.29,1861.68 2048.69,1861.68 C2046.08,1861.68 2043.96,1859.56 2043.96,1856.95 C2043.96,1854.34 2046.08,1852.23 2048.69,1852.23 C2051.29,1852.23 2053.41,1854.34 2053.41,1856.95 " vector-effect="non-scaling-stroke"/>
   <path fill-rule="evenodd" d="M2063.47,2023.3 C2063.47,2025.91 2061.35,2028.02 2058.74,2028.02 C2056.13,2028.02 2054.02,2025.91 2054.02,2023.3 C2054.02,2020.69 2056.13,2018.57 2058.74,2018.57 C2061.35,2018.57 2063.47,2020.69 2063.47,2023.3 " vector-effect="non-scaling-stroke"/>
   <path fill-rule="evenodd" d="M1453.31,1606.28 C1453.31,1608.89 1451.2,1611 1448.59,1611 C1445.98,1611 1443.86,1608.89 1443.86,1606.28 C1443.86,1603.67 1445.98,1601.55 1448.59,1601.55 C1451.2,1601.55 1453.31,1603.67 1453.31,1606.28 " vector-effect="non-scaling-stroke"/>
   <path fill-rule="evenodd" d="M2156.65,1269.06 C2156.65,1271.67 2154.53,1273.78 2151.92,1273.78 C2149.31,1273.78 2147.2,1271.67 2147.2,1269.06 C2147.2,1266.45 2149.31,1264.33 2151.92,1264.33 C2154.53,1264.33 2156.65,1266.45 2156.65,1269.06 " vector-effect="non-scaling-stroke"/>
   <path fill-rule="evenodd" d="M2185.89,1616.41 C2185.89,1619.01 2183.78,1621.13 2181.17,1621.13 C2178.56,1621.13 2176.44,1619.01 2176.44,1616.41 C2176.44,1613.8 2178.56,1611.68 2181.17,1611.68 C2183.78,1611.68 2185.89,1613.8 2185.89,1616.41 " vector-effect="non-scaling-stroke"/>
   <path fill-rule="evenodd" d="M1949.35,1042.67 C1949.35,1045.28 1947.23,1047.4 1944.62,1047.4 C1942.02,1047.4 1939.9,1045.28 1939.9,1042.67 C1939.9,1040.06 1942.02,1037.95 1944.62,1037.95 C1947.23,1037.95 1949.35,1040.06 1949.35,1042.67 " vector-effect="non-scaling-stroke"/>
   <path fill-rule="evenodd" d="M1824.3,1682.52 C1824.3,1685.13 1822.18,1687.24 1819.57,1687.24 C1816.96,1687.24 1814.85,1685.13 1814.85,1682.52 C1814.85,1679.91 1816.96,1677.79 1819.57,1677.79 C1822.18,1677.79 1824.3,1679.91 1824.3,1682.52 " vector-effect="non-scaling-stroke"/>
   <path fill-rule="evenodd" d="M1926.68,1393.88 C1926.68,1396.49 1924.56,1398.61 1921.96,1398.61 C1919.35,1398.61 1917.23,1396.49 1917.23,1393.88 C1917.23,1391.27 1919.35,1389.16 1921.96,1389.16 C1924.56,1389.16 1926.68,1391.27 1926.68,1393.88 " vector-effect="non-scaling-stroke"/>
   <path fill-rule="evenodd" d="M1602.44,2032.25 C1602.44,2034.86 1600.33,2036.98 1597.72,2036.98 C1595.11,2036.98 1592.99,2034.86 1592.99,2032.25 C1592.99,2029.64 1595.11,2027.53 1597.72,2027.53 C1600.33,2027.53 1602.44,2029.64 1602.44,2032.25 " vector-effect="non-scaling-stroke"/>
   <path fill-rule="evenodd" d="M1967.71,1538.81 C1967.71,1541.42 1965.59,1543.53 1962.98,1543.53 C1960.37,1543.53 1958.26,1541.42 1958.26,1538.81 C1958.26,1536.2 1960.37,1534.09 1962.98,1534.09 C1965.59,1534.09 1967.71,1536.2 1967.71,1538.81 " vector-effect="non-scaling-stroke"/>
   <path fill-rule="evenodd" d="M1660.46,1958.47 C1660.46,1961.08 1658.34,1963.19 1655.74,1963.19 C1653.13,1963.19 1651.01,1961.08 1651.01,1958.47 C1651.01,1955.86 1653.13,1953.74 1655.74,1953.74 C1658.34,1953.74 1660.46,1955.86 1660.46,1958.47 " vector-effect="non-scaling-stroke"/>
   <path fill-rule="evenodd" d="M1796.8,1090.05 C1796.8,1092.66 1794.69,1094.77 1792.08,1094.77 C1789.47,1094.77 1787.36,1092.66 1787.36,1090.05 C1787.36,1087.44 1789.47,1085.32 1792.08,1085.32 C1794.69,1085.32 1796.8,1087.44 1796.8,1090.05 " vector-effect="non-scaling-stroke"/>
   <path fill-rule="evenodd" d="M1470.34,1672.41 C1470.34,1675.02 1468.22,1677.13 1465.61,1677.13 C1463,1677.13 1460.89,1675.02 1460.89,1672.41 C1460.89,1669.8 1463,1667.68 1465.61,1667.68 C1468.22,1667.68 1470.34,1669.8 1470.34,1672.41 " vector-effect="non-scaling-stroke"/>
   <path fill-rule="evenodd" d="M1886.21,1671.97 C1886.21,1674.58 1884.1,1676.7 1881.49,1676.7 C1878.88,1676.7 1876.76,1674.58 1876.76,1671.97 C1876.76,1669.36 1878.88,1667.25 1881.49,1667.25 C1884.1,1667.25 1886.21,1669.36 1886.21,1671.97 " vector-effect="non-scaling-stroke"/>
   <path fill-rule="evenodd" d="M2046.33,1504.47 C2046.33,1507.08 2044.22,1509.2 2041.61,1509.2 C2039,1509.2 2036.88,1507.08 2036.88,1504.47 C2036.88,1501.86 2039,1499.75 2041.61,1499.75 C2044.22,1499.75 2046.33,1501.86 2046.33,1504.47 " vector-effect="non-scaling-stroke"/>
   <path fill-rule="evenodd" d="M2002.9,600.627 C2002.9,603.236 2000.79,605.351 1998.18,605.351 C1995.57,605.351 1993.45,603.236 1993.45,600.627 C1993.45,598.017 1995.57,595.902 1998.18,595.902 C2000.79,595.902 2002.9,598.017 2002.9,600.627 " vector-effect="non-scaling-stroke"/>
   <path fill-rule="evenodd" d="M2132.37,1304.86 C2132.37,1307.47 2130.25,1309.58 2127.64,1309.58 C2125.03,1309.58 2122.92,1307.47 2122.92,1304.86 C2122.92,1302.25 2125.03,1300.13 2127.64,1300.13 C2130.25,1300.13 2132.37,1302.25 2132.37,1304.86 " vector-effect="non-scaling-stroke"/>
   <path fill-rule="evenodd" d="M1675.06,1593.4 C1675.06,1596.01 1672.94,1598.13 1670.33,1598.13 C1667.72,1598.13 1665.61,1596.01 1665.61,1593.4 C1665.61,1590.79 1667.72,1588.68 1670.33,1588.68 C1672.94,1588.68 1675.06,1590.79 1675.06,1593.4 " vector-effect="non-scaling-stroke"/>
   <path fill-rule="evenodd" d="M2381.33,736.196 C2381.33,738.805 2379.21,740.92 2376.6,740.92 C2373.99,740.92 2371.88,738.805 2371.88,736.196 C2371.88,733.587 2373.99,731.471 2376.6,731.471 C2379.21,731.471 2381.33,733.587 2381.33,736.196 " vector-effect="non-scaling-stroke"/>
   <path fill-rule="evenodd" d="M2325.38,542.264 C2325.38,544.873 2323.26,546.988 2320.65,546.988 C2318.04,546.988 2315.93,544.873 2315.93,542.264 C2315.93,539.654 2318.04,537.539 2320.65,537.539 C2323.26,537.539 2325.38,539.654 2325.38,542.264 " vector-effect="non-scaling-stroke"/>
   <path fill-rule="evenodd" d="M1706.47,1709.63 C1706.47,1712.24 1704.35,1714.36 1701.74,1714.36 C1699.13,1714.36 1697.02,1712.24 1697.02,1709.63 C1697.02,1707.02 1699.13,1704.91 1701.74,1704.91 C1704.35,1704.91 1706.47,1707.02 1706.47,1709.63 " vector-effect="non-scaling-stroke"/>
   <path fill-rule="evenodd" d="M1794.89,1917.42 C1794.89,1920.03 1792.77,1922.14 1790.16,1922.14 C1787.55,1922.14 1785.44,1920.03 1785.44,1917.42 C1785.44,1914.81 1787.55,1912.7 1790.16,1912.7 C1792.77,1912.7 1794.89,1914.81 1794.89,1917.42 " vector-effect="non-scaling-stroke"/>
   <path fill-rule="evenodd" d="M1474.62,1556.12 C1474.62,1558.73 1472.51,1560.84 1469.9,1560.84 C1467.29,1560.84 1465.17,1558.73 1465.17,1556.12 C1465.17,1553.51 1467.29,1551.39 1469.9,1551.39 C1472.51,1551.39 1474.62,1553.51 1474.62,1556.12 " vector-effect="non-scaling-stroke"/>
   <path fill-rule="evenodd" d="M1761.99,992.732 C1761.99,995.341 1759.88,997.456 1757.27,997.456 C1754.66,997.456 1752.54,995.341 1752.54,992.732 C1752.54,990.123 1754.66,988.008 1757.27,988.008 C1759.88,988.008 1761.99,990.123 1761.99,992.732 " vector-effect="non-scaling-stroke"/>
   <path fill-rule="evenodd" d="M2261.66,923.321 C2261.66,925.93 2259.54,928.045 2256.93,928.045 C2254.32,928.045 2252.21,925.93 2252.21,923.321 C2252.21,920.712 2254.32,918.596 2256.93,918.596 C2259.54,918.596 2261.66,920.712 2261.66,923.321 " vector-effect="non-scaling-stroke"/>
   <path fill-rule="evenodd" d="M1908.48,1702.66 C1908.48,1705.27 1906.37,1707.38 1903.76,1707.38 C1901.15,1707.38 1899.04,1705.27 1899.04,1702.66 C1899.04,1700.05 1901.15,1697.93 1903.76,1697.93 C1906.37,1697.93 1908.48,1700.05 1908.48,1702.66 " vector-effect="non-scaling-stroke"/>
   <path fill-rule="evenodd" d="M1678.38,1678.44 C1678.38,1681.05 1676.26,1683.16 1673.65,1683.16 C1671.04,1683.16 1668.93,1681.05 1668.93,1678.44 C1668.93,1675.83 1671.04,1673.71 1673.65,1673.71 C1676.26,1673.71 1678.38,1675.83 1678.38,1678.44 " vector-effect="non-scaling-stroke"/>
   <path fill-rule="evenodd" d="M1891.93,1116.12 C1891.93,1118.73 1889.81,1120.84 1887.2,1120.84 C1884.59,1120.84 1882.48,1118.73 1882.48,1116.12 C1882.48,1113.51 1884.59,1111.39 1887.2,1111.39 C1889.81,1111.39 1891.93,1113.51 1891.93,1116.12 " vector-effect="non-scaling-stroke"/>
   <path fill-rule="evenodd" d="M2257.9,1068.44 C2257.9,1071.05 2255.78,1073.17 2253.18,1073.17 C2250.57,1073.17 2248.45,1071.05 2248.45,1068.44 C2248.45,1065.83 2250.57,1063.72 2253.18,1063.72 C2255.78,1063.72 2257.9,1065.83 2257.9,1068.44 " vector-effect="non-scaling-stroke"/>
   <path fill-rule="evenodd" d="M1984.74,1120.79 C1984.74,1123.4 1982.63,1125.52 1980.02,1125.52 C1977.41,1125.52 1975.29,1123.4 1975.29,1120.79 C1975.29,1118.18 1977.41,1116.07 1980.02,1116.07 C1982.63,1116.07 1984.74,1118.18 1984.74,1120.79 " vector-effect="non-scaling-stroke"/>
  </g>
  <g font-family=".AppleSystemUIFont" fill="none" stroke-width="1" font-size="54.1667" font-style="normal" stroke-linejoin="bevel" stroke-opacity="1" font-weight="400" transform="matrix(0.999751,0,0,0.999751,0,0)" stroke="#000000" stroke-linecap="square"/>
  <g font-family=".AppleSystemUIFont" fill="none" stroke-width="1" font-size="54.1667" font-style="normal" stroke-linejoin="bevel" stroke-opacity="1" font-weight="400" transform="matrix(11.8081,0,0,11.8081,0,0)" stroke="#000000" stroke-linecap="square"/>
  <g font-family=".AppleSystemUIFont" fill="none" stroke-width="1" font-size="54.1667" font-style="normal" stroke-linejoin="bevel" stroke-opacity="1" font-weight="400" transform="matrix(11.8081,0,0,11.8081,0,0)" stroke="#000000" stroke-linecap="square"/>
  <g font-family=".AppleSystemUIFont" fill="none" stroke-width="1" font-size="54.1667" font-style="normal" stroke-linejoin="bevel" stroke-opacity="1" font-weight="400" transform="matrix(11.8081,0,0,11.8081,0,0)" stroke="#000000" stroke-linecap="square"/>
  <g font-family=".AppleSystemUIFont" fill="none" stroke-width="1" font-size="54.1667" font-style="normal" stroke-linejoin="bevel" stroke-opacity="1" font-weight="400" transform="matrix(1,0,0,1,0,0)" stroke="#000000" stroke-linecap="square"/>
  <g font-family=".AppleSystemUIFont" fill="none" stroke-width="1" font-size="54.1667" font-style="normal" stroke-linejoin="bevel" stroke-opacity="1" font-weight="400" transform="matrix(11.8081,0,0,11.8081,0,0)" stroke="#000000" stroke-linecap="square"/>
  <g font-family=".AppleSystemUIFont" fill="none" stroke-width="1" font-size="54.1667" font-style="normal" stroke-linejoin="bevel" stroke-opacity="1" font-weight="400" transform="matrix(11.8081,0,0,11.8081,0,0)" stroke="#000000" stroke-linecap="square"/>
  <g font-family=".AppleSystemUIFont" fill="none" stroke-width="1" font-size="54.1667" font-style="normal" stroke-linejoin="bevel" stroke-opacity="1" font-weight="400" transform="matrix(11.8081,0,0,11.8081,0,0)" stroke="#000000" stroke-linecap="square"/>
  <g font-family=".AppleSystemUIFont" fill="none" stroke-width="1" font-size="54.1667" font-style="normal" stroke-linejoin="bevel" stroke-opacity="1" font-weight="400" transform="matrix(11.8081,0,0,11.8081,0,0)" stroke="#000000" stroke-linecap="square"/>
  <g font-family=".AppleSystemUIFont" fill="none" stroke-width="1" font-size="54.1667" font-style="normal" stroke-linejoin="bevel" stroke-opacity="1" font-weight="400" transform="matrix(1,0,0,1,0,0)" stroke="#000000" stroke-linecap="square"/>
 </g>
 <metadata>
  <rdf:RDF xmlns:rdfs="http://www.w3.org/2000/01/rdf-schema#" xmlns:rdf="http://www.w3.org/1999/02/22-rdf-syntax-ns#" xmlns:dc="http://purl.org/dc/elements/1.1/">
   <rdf:Description dc:description="" dc:title="" dc:date="2021-05-09T15:36:19" dc:identifier="" dc:format="image/svg+xml">
    <dc:creator>
     <rdf:Bag>
      <rdf:li>Ana Pinilla</rdf:li>
     </rdf:Bag>
    </dc:creator>
    <dc:publisher>
     <rdf:Bag>
      <rdf:li>QGIS 3.16.4-Hannover</rdf:li>
     </rdf:Bag>
    </dc:publisher>
    <dc:subject>
     <rdf:Bag/>
    </dc:subject>
   </rdf:Description>
   <cc:Work rdf:about="">
    <dc:format>image/svg+xml</dc:format>
    <dc:title></dc:title>
    <dc:date>2021-05-09T15:36:19</dc:date>
    <dc:identifier></dc:identifier>
    <dc:description></dc:description>
    <dc:creator>
     <cc:Agent>
      <dc:title>Ana Pinilla</dc:title>
     </cc:Agent>
    </dc:creator>
    <dc:publisher>
     <cc:Agent>
      <dc:title>QGIS 3.16.4-Hannover</dc:title>
     </cc:Agent>
    </dc:publisher>
   </cc:Work>
  </rdf:RDF>
 </metadata>
</svg>
